<svg width="553" height="474" viewBox="0 0 553 474" fill="none" xmlns="http://www.w3.org/2000/svg">
<path d="M287.98 284.191H254.77" stroke="#1062FB" stroke-width="44" stroke-miterlimit="10" stroke-linecap="round"/>
<path d="M252.02 284.071L220.87 280.261" stroke="#1062FB" stroke-width="44" stroke-miterlimit="10" stroke-linecap="round"/>
<path d="M228.7 303.381L224.34 284.391L234.92 304.141L228.7 303.381Z" fill="#103EFF"/>
<path d="M101.509 289.571L72.2195 306.851" stroke="#1062FB" stroke-width="42" stroke-miterlimit="10" stroke-linecap="round"/>
<path d="M72.2195 306.851L82.0295 333.361" stroke="#1062FB" stroke-width="42" stroke-miterlimit="10" stroke-linecap="round"/>
<path d="M80.8994 277.361C80.8994 277.361 96.6194 265.741 108.299 266.951L104.349 300.411C104.349 300.411 100.899 280.221 80.8994 277.361Z" fill="#103EFF"/>
<path d="M97.9895 315.941L95.0195 309.251L101.25 314.061L97.9895 315.941Z" fill="#103EFF"/>
<path d="M104.549 360.891L99.0994 453.611C98.4694 463.851 106.609 472.501 116.859 472.501H138.099C146.839 472.501 154.289 466.151 155.669 457.521L170.549 376.621C171.899 368.181 167.069 359.971 159.029 357.071L128.359 345.251C117.189 341.211 105.269 349.041 104.539 360.901L104.549 360.891Z" fill="#1062FB"/>
<path d="M85.1994 472.491H148.219C151.139 472.491 153.629 470.391 154.129 467.521L158.679 441.331H99.7894C89.3694 443.051 82.5194 449.391 80.2594 460.601L79.3094 465.311C78.5594 469.021 81.3994 472.491 85.1894 472.491H85.1994Z" fill="#D8E1FD"/>
<path d="M79.8894 462.431L79.3094 465.311C78.5594 469.021 81.3994 472.491 85.1894 472.491H148.259C151.179 472.491 153.669 470.391 154.169 467.521L155.049 462.431H79.8794H79.8894Z" fill="#BCCBFD"/>
<path d="M99.6995 443.741L158.049 444.631L161.159 427.681H100.689L99.6995 443.741Z" fill="#D8E1FD"/>
<path d="M99.6995 441.431C99.6995 441.431 103.369 440.481 106.869 440.681C112.169 440.971 113.989 441.331 126.509 448.121C126.609 448.171 127.009 447.561 126.899 447.401C125.779 445.671 118.839 435.541 106.659 435.711C103.779 435.751 100.139 436.561 100.139 436.561L99.6995 441.431Z" fill="#BCCBFD"/>
<path d="M100.689 427.681H161.159L163.319 415.911H101.409L100.689 427.681Z" fill="#103EFF"/>
<path d="M163.869 412.921L169.179 383.991L155.099 377.721L163.869 412.921Z" fill="#103EFF"/>
<path d="M240.52 360.891L245.97 453.611C246.6 463.851 238.46 472.501 228.21 472.501H206.97C198.23 472.501 190.78 466.151 189.4 457.521L174.52 376.621C173.17 368.181 178 359.971 186.04 357.071L216.71 345.251C227.88 341.211 239.8 349.041 240.53 360.901L240.52 360.891Z" fill="#1062FB"/>
<path d="M259.87 472.491H196.85C193.93 472.491 191.44 470.391 190.94 467.521L186.39 441.331H245.28C255.7 443.051 262.55 449.391 264.81 460.601L265.76 465.311C266.51 469.021 263.67 472.491 259.88 472.491H259.87Z" fill="#D8E1FD"/>
<path d="M265.17 462.431L265.75 465.311C266.5 469.021 263.66 472.491 259.87 472.491H196.8C193.88 472.491 191.39 470.391 190.89 467.521L190.01 462.431H265.18H265.17Z" fill="#BCCBFD"/>
<path d="M245.36 443.741L187.02 444.631L183.91 427.681H244.38L245.36 443.741Z" fill="#D8E1FD"/>
<path d="M245.36 441.431C245.36 441.431 241.69 440.481 238.19 440.681C232.89 440.971 231.07 441.331 218.55 448.121C218.45 448.171 218.05 447.561 218.16 447.401C219.28 445.671 226.22 435.541 238.4 435.711C241.28 435.751 244.92 436.561 244.92 436.561L245.36 441.431Z" fill="#BCCBFD"/>
<path d="M244.38 427.681H183.91L181.75 415.911H243.66L244.38 427.681Z" fill="#103EFF"/>
<path d="M181.2 412.921L175.88 383.991L189.97 377.721L181.2 412.921Z" fill="#103EFF"/>
<path d="M213.259 387.681L138.589 395.831C121.069 397.741 105.599 384.481 104.889 366.951L105.759 267.851C105.119 251.921 117.369 241.831 133.279 240.091L184.859 234.461C200.779 232.721 214.919 239.941 217.719 255.631L239.939 352.211C243.029 369.481 230.779 385.771 213.259 387.681Z" fill="#1062FB"/>
<path d="M135.069 389.141C147.009 397.541 161.249 398.871 176.429 397.211C191.609 395.551 205.229 391.191 215.079 380.411C215.079 380.411 194.069 385.651 175.389 387.691C156.769 389.721 135.069 389.141 135.069 389.141Z" fill="#103EFF"/>
<path d="M175.839 271.999L151.613 274.643L159.868 350.264L184.094 347.62L175.839 271.999Z" fill="#0128FC"/>
<path d="M105.729 270.431L105.659 278.611C119.959 285.211 140.679 287.211 164.359 284.621C188.129 282.031 207.549 275.201 219.999 265.561L218.339 258.341C207.239 268.371 187.609 275.511 163.649 278.121C139.689 280.731 118.839 277.781 105.729 270.431Z" fill="#103EFF"/>
<path d="M163.649 278.121C197.279 274.451 223.439 261.281 222.069 248.691C220.699 236.111 192.319 228.881 158.679 232.551C125.049 236.221 98.8895 249.391 100.259 261.981C101.629 274.571 130.009 281.791 163.649 278.121Z" fill="#BCCBFD"/>
<path d="M242.339 335.571C241.719 332.881 238.979 331.251 236.319 331.971C214.509 337.921 199.009 339.871 172.119 342.801C144.529 345.811 129.079 347.431 106.069 346.191C103.299 346.041 100.969 348.221 100.939 351.001C100.899 354.611 100.889 358.361 100.909 362.251C100.919 364.831 102.929 366.951 105.499 367.111C129.189 368.571 145.669 367.021 174.419 363.891C202.429 360.831 218.899 358.611 241.339 352.311C243.829 351.611 245.339 349.101 244.799 346.571C243.979 342.761 243.159 339.101 242.339 335.581V335.571Z" fill="#BCCBFD"/>
<path d="M200.639 341.431C200.179 338.461 197.409 336.411 194.439 336.861C187.059 337.991 179.509 338.981 171.799 339.821C163.439 340.731 155.219 341.431 147.169 341.931C144.159 342.121 141.889 344.721 142.079 347.731L143.129 363.951C143.329 366.961 145.919 369.231 148.929 369.051C157.349 368.551 165.979 367.821 174.739 366.861C182.849 365.981 190.789 364.921 198.529 363.721C201.509 363.261 203.569 360.471 203.109 357.491L200.639 341.421V341.431Z" fill="#D8E1FD"/>
<path d="M153.329 360.011C155.969 360.011 158.109 357.871 158.109 355.231C158.109 352.591 155.969 350.451 153.329 350.451C150.689 350.451 148.549 352.591 148.549 355.231C148.549 357.871 150.689 360.011 153.329 360.011Z" fill="#11AD00"/>
<path d="M166.169 359.621C168.809 359.621 170.949 357.481 170.949 354.841C170.949 352.201 168.809 350.061 166.169 350.061C163.529 350.061 161.389 352.201 161.389 354.841C161.389 357.481 163.529 359.621 166.169 359.621Z" fill="#11AD00"/>
<path d="M178.909 358.231C181.549 358.231 183.689 356.091 183.689 353.451C183.689 350.811 181.549 348.671 178.909 348.671C176.269 348.671 174.129 350.811 174.129 353.451C174.129 356.091 176.269 358.231 178.909 358.231Z" fill="#E8A600"/>
<path d="M191.53 355.851C194.169 355.851 196.31 353.711 196.31 351.071C196.31 348.431 194.169 346.291 191.53 346.291C188.89 346.291 186.75 348.431 186.75 351.071C186.75 353.711 188.89 355.851 191.53 355.851Z" fill="#FF3B00"/>
<path d="M115.019 353.779L111.607 347.168C108.775 341.681 102.031 339.529 96.5443 342.36L81.4911 350.13C76.0043 352.962 73.8521 359.706 76.6841 365.192L80.0964 371.804C82.9284 377.291 89.672 379.443 95.1588 376.611L110.212 368.841C115.699 366.009 117.851 359.266 115.019 353.779Z" fill="#FFAB4B"/>
<path d="M74.0402 371.25L74.0391 371.26C73.7454 373.95 75.6882 376.369 78.3784 376.663L86.7387 377.576C89.4289 377.869 91.8478 375.927 92.1415 373.236L92.1426 373.226C92.4363 370.536 90.4935 368.117 87.8033 367.824L79.443 366.911C76.7527 366.617 74.3338 368.56 74.0402 371.25Z" fill="#FFAB4B"/>
<path d="M98.2256 326.028L67.3896 339.796C63.5619 341.505 61.8444 345.993 63.5534 349.821L66.395 356.185C68.104 360.013 72.5923 361.73 76.42 360.021L107.256 346.254C111.084 344.545 112.801 340.056 111.092 336.229L108.251 329.864C106.542 326.036 102.053 324.319 98.2256 326.028Z" fill="#103EFF"/>
<path d="M7.14952 67.6207C23.9995 49.8307 73.5895 104.951 107.43 108.271L121.47 168.821L63.0895 182.361C54.5695 184.341 37.7195 180.811 28.5595 164.971C17.1195 145.141 -13.9005 89.8907 7.14952 67.6207Z" fill="#FFAB4B"/>
<path fill-rule="evenodd" clip-rule="evenodd" d="M13.8596 137.151C15.3196 130.261 19.8696 112.401 30.3396 99.9707C37.9896 90.8607 46.9896 84.8907 53.1796 81.4207C33.5496 68.7807 15.9296 58.3507 7.14955 67.6207C-7.12045 82.7307 2.53955 113.071 13.8496 137.151H13.8596Z" fill="#1062FB"/>
<path d="M9.06961 79.6507C19.7996 66.6707 62.3996 119.091 85.2196 122.641L96.0896 169.501L63.5096 177.051C52.3896 178.711 40.1496 173.051 34.0596 163.141C24.9796 148.251 -4.36039 95.8607 9.06961 79.6407V79.6507Z" fill="#FFCE96"/>
<path d="M226.18 16.8307C203.22 8.27072 182.95 79.5907 154.03 97.4607L168.07 158.011L226.45 144.471C234.97 142.491 248.55 131.921 249.8 113.661C251.35 90.8207 254.89 27.5507 226.18 16.8307Z" fill="#FFAB4B"/>
<path fill-rule="evenodd" clip-rule="evenodd" d="M250.759 82.2207C246.409 76.6707 234.469 62.6407 219.599 56.0907C208.719 51.2807 198.009 49.8807 190.919 49.4807C202.989 29.4907 214.219 12.3707 226.179 16.8307C245.639 24.1207 250.319 55.6107 250.759 82.2207Z" fill="#1062FB"/>
<path d="M229.75 28.4806C214.4 21.5506 199.22 87.3706 180.29 100.601L191.16 147.461L223.74 139.911C234.46 136.501 242.96 126.031 244.06 114.461C245.67 97.0906 248.95 37.1406 229.76 28.4806H229.75Z" fill="#FFCE96"/>
<path d="M163.03 243.571C208.38 233.051 237.12 189.931 227.22 147.251C217.32 104.571 172.54 78.5007 127.19 89.0207C81.8395 99.5407 53.0995 142.661 62.9995 185.341C72.8995 228.021 117.68 254.091 163.03 243.571Z" fill="#FFAB4B"/>
<path d="M254.16 190.271C252.87 188.561 251.41 186.871 249.83 185.211C250.64 184.491 251.26 183.531 251.59 182.411C252.21 180.351 251.71 178.101 250.27 176.521C241.31 166.921 231.49 162.191 226.41 160.221C224.02 159.321 221.4 159.841 219.51 161.651C219.05 162.121 218.67 162.641 218.38 163.181C215.78 162.821 213 162.631 209.92 162.611C193.64 162.531 172.46 167.441 150.04 172.641L143.13 174.241C120.73 179.431 99.5796 184.341 84.9296 191.601C82.2696 192.941 79.7996 194.391 77.5496 195.921C76.9896 195.511 76.3696 195.181 75.7196 194.961C73.3196 194.161 70.7296 194.831 68.9296 196.741C65.2696 200.681 58.5396 209.191 54.6796 221.891C54.0996 223.901 54.6096 226.071 56.0896 227.731C56.8796 228.581 57.8496 229.171 58.8896 229.461C58.3196 231.251 57.7196 233.451 57.2496 235.931C56.7396 238.581 57.9496 241.201 60.3396 242.621C62.0296 243.621 64.0996 243.861 65.9396 243.351C66.1596 244.031 66.5196 244.671 66.9996 245.231L67.0696 245.311C68.4196 246.751 70.3796 247.391 72.3996 247.001C72.5996 246.951 72.8196 246.911 73.0796 246.881C79.5496 254.301 89.0696 260.071 100.7 263.601C119.29 269.251 143.02 269.231 167.52 263.551C191.94 257.891 213.25 247.461 227.54 234.191C236.6 225.761 242.47 216.621 245.02 207.021C245.14 206.981 245.26 206.951 245.37 206.911L245.52 206.861C247.46 206.331 248.97 204.841 249.48 202.971C249.7 202.221 249.75 201.461 249.65 200.731C251.51 200.341 253.23 199.251 254.33 197.651C255.85 195.331 255.79 192.431 254.16 190.271Z" fill="#FFAB4B"/>
<path d="M200.75 179.231C193.07 182.761 183.96 181.181 177.84 175.071C169.32 166.611 156.97 162.531 144.66 165.381C132.36 168.231 123.06 177.331 119.13 188.681C116.35 196.801 108.82 202.241 100.39 202.501C80.9395 203.031 68.8695 205.201 73.0795 223.351C80.4095 254.961 130.21 268.271 166.52 259.851C202.83 251.431 241.69 217.561 234.36 185.951C230.24 167.771 218.45 171.141 200.75 179.221V179.231Z" fill="white"/>
<path d="M162.57 163.661C160.01 152.601 166.87 141.591 177.93 139.021C188.99 136.461 200 143.321 202.57 154.381L204.6 163.141C204.92 164.521 204.22 165.901 202.95 166.491L171 180.941C168.93 181.861 166.58 180.701 166.06 178.491L162.62 163.651H162.57V163.661Z" fill="white"/>
<path d="M127.78 171.721C125.22 160.661 114.2 153.791 103.14 156.361C92.0795 158.921 85.2095 169.941 87.7795 181.001L89.8095 189.761C90.1295 191.141 91.3695 192.071 92.7695 192.041L127.82 190.951C130.08 190.861 131.69 188.791 131.18 186.581L127.74 171.741H127.79L127.78 171.721Z" fill="white"/>
<path d="M182.58 171.251C189.78 169.581 194.32 162.611 192.71 155.691C191.1 148.771 183.97 144.511 176.76 146.181C169.56 147.851 165.02 154.821 166.63 161.741C168.24 168.661 175.37 172.921 182.58 171.251Z" fill="black"/>
<path d="M184.78 151.171C186.33 150.811 187.25 149.051 186.83 147.251C186.41 145.451 184.81 144.271 183.26 144.631C181.71 144.991 180.79 146.751 181.21 148.551C181.63 150.351 183.23 151.531 184.78 151.171Z" fill="white"/>
<path d="M113.14 187.351C120.34 185.681 124.88 178.711 123.27 171.791C121.66 164.871 114.53 160.611 107.32 162.281C100.12 163.951 95.5796 170.921 97.1896 177.841C98.7996 184.761 105.93 189.021 113.14 187.351Z" fill="black"/>
<path d="M116.3 167.051C117.85 166.691 118.77 164.931 118.35 163.131C117.93 161.331 116.33 160.151 114.78 160.511C113.23 160.871 112.31 162.631 112.73 164.431C113.15 166.231 114.75 167.411 116.3 167.051Z" fill="white"/>
<path d="M152.41 199.031C161.88 196.831 168.29 189.631 166.74 182.941C165.19 176.251 156.26 172.601 146.79 174.801C137.32 177.001 130.91 184.201 132.46 190.891C134.01 197.581 142.94 201.231 152.41 199.031Z" fill="black"/>
<path d="M149.15 184.101C154.16 182.941 157.83 180.261 157.33 178.121C156.83 175.981 152.37 175.191 147.35 176.351C142.34 177.511 138.67 180.191 139.17 182.331C139.67 184.471 144.13 185.261 149.15 184.101Z" fill="#3C3835"/>
<path d="M153.929 86.9507L152.629 97.9807L141.229 102.421L137.709 132.661L121.239 107.051L109.049 108.081L102.899 98.5607C99.6795 100.411 96.5995 102.451 93.6895 104.651L99.7394 114.021C101.939 117.441 105.829 119.361 109.879 119.001L115.499 118.521L134.559 149.211C138.119 154.941 146.969 152.891 147.649 146.181L151.259 110.241L156.519 108.201C160.309 106.741 162.959 103.311 163.429 99.2707L164.709 88.4207C161.189 87.7107 157.589 87.2307 153.939 86.9607L153.929 86.9507Z" fill="#FFCE96"/>
<path d="M111.7 102.621L123.89 101.591L134.22 117.651L136.43 98.6907L147.83 94.2507L148.53 88.4607L137.08 92.9107L137.76 87.2607C136 87.4507 134.23 87.6907 132.46 88.0007L130.76 102.731L122.72 90.2007C120.99 90.7007 119.29 91.2507 117.62 91.8407L120.77 96.6907L108.53 97.7307L111.7 102.631V102.621Z" fill="#FFCE96"/>
<path d="M190.77 127.591C182.69 125.631 174.06 126.321 170.76 126.941" stroke="#DB811A" stroke-width="9.46" stroke-linecap="round"/>
<path d="M103.819 142.431C100.579 143.331 92.5294 146.501 86.1394 151.821" stroke="#DB811A" stroke-width="9.46" stroke-linecap="round"/>
<path d="M177.07 198.761C179.21 214.231 168.11 222.731 158.74 224.911C149.61 227.031 137.37 224.271 131.32 209.921C139.82 215.071 146.89 215.291 156.02 213.171C165.4 211.001 171.28 206.861 177.07 198.761Z" fill="#440E02" stroke="black" stroke-width="3" stroke-linecap="round" stroke-linejoin="round"/>
<mask id="mask0_1906_2188" style="mask-type:luminance" maskUnits="userSpaceOnUse" x="133" y="200" width="42" height="25">
<path d="M174.679 200.171C176.589 214.021 166.66 221.631 158.27 223.571C150.1 225.471 139.149 223.001 133.729 210.161C141.329 214.771 147.659 214.971 155.839 213.071C164.019 211.171 169.499 207.421 174.679 200.171Z" fill="white"/>
</mask>
<g mask="url(#mask0_1906_2188)">
<path d="M171.119 217.331C171.839 220.301 167.309 223.941 161.009 225.461C154.709 226.981 149.019 225.811 148.299 222.841C147.779 220.681 150.029 218.141 153.739 216.361C156.509 215.041 158.619 215.561 158.619 215.561C158.619 215.561 160.509 214.171 163.269 214.051C167.409 213.871 170.589 215.161 171.119 217.331Z" fill="#FF5252"/>
<path d="M157.679 216.441C157.679 216.441 151.189 217.261 149.689 222.061C149.689 222.061 149.709 222.901 150.809 222.631C151.909 222.361 151.639 220.051 155.609 218.291C155.609 218.291 157.899 218.111 157.689 216.431L157.679 216.441Z" fill="#FF9999"/>
<path d="M159.829 215.921C159.829 215.921 165.969 213.691 169.509 217.281C169.509 217.281 169.879 218.031 168.769 218.301C167.659 218.571 166.859 216.381 162.519 216.631C162.519 216.631 160.399 217.521 159.829 215.921Z" fill="#FF9999"/>
</g>
<path d="M298.31 273.861L300.52 295.361C300.83 298.341 302.9 300.851 305.78 301.701C308.78 302.591 310.83 303.081 313.93 303.381C317.15 303.691 321.96 303.451 324.59 302.671C327.22 301.891 329.41 299.471 329.75 296.741L330.59 292.841C331.5 285.481 330.97 278.021 329.05 270.861L327.92 266.631L327.66 266.071C326.04 262.551 322.36 260.461 318.51 260.851C314.36 261.281 310.27 262.131 306.29 263.401L304.85 263.861C300.58 265.231 297.86 269.391 298.32 273.851L298.31 273.861Z" fill="#FFAB4B"/>
<path d="M298.31 273.861L300.52 295.361C300.83 298.341 302.9 300.851 305.78 301.701C308.78 302.591 310.83 303.081 313.93 303.381C317.15 303.691 321.96 303.451 324.59 302.671C327.22 301.891 329.41 299.471 329.75 296.741L330.59 292.841C331.5 285.481 330.97 278.021 329.05 270.861L327.92 266.631L327.66 266.071C326.04 262.551 322.36 260.461 318.51 260.851C314.36 261.281 310.27 262.131 306.29 263.401L304.85 263.861C300.58 265.231 297.86 269.391 298.32 273.851L298.31 273.861Z" fill="#FFAB4B"/>
<path d="M301.34 469.261L338.24 24.2606" stroke="#90A3BF" stroke-width="8" stroke-miterlimit="10" stroke-linecap="round"/>
<path d="M336.56 163.301C341.16 154.621 348.9 139.401 350.61 118.821C352.32 98.1806 346.55 78.0206 341.99 66.6406C337.43 55.2606 339.17 49.0306 358.4 44.3706C379.65 39.2306 405.9 34.2406 431.23 39.1906C458.09 44.4406 461.21 56.6206 478.94 59.7606C497.23 63.0006 514.32 57.3006 526.05 52.4506C538.07 47.4806 550 48.3106 552.1 70.1506C554.41 94.3006 548.22 145.571 544.92 164.501C542.32 179.451 541.56 190.441 525.5 195.691C517.07 198.441 509.58 199.021 500.58 199.561C484.75 200.511 464.24 196.761 450.81 190.791C444.12 187.821 428.98 180.781 418.36 178.701C406.72 176.421 395.17 176.641 382.3 179.071C364.14 182.501 357.46 184.561 344.61 187.271C333.12 189.691 324.8 185.471 336.56 163.301Z" fill="#06B6F9"/>
<path d="M440.01 72.0706C445.05 69.6906 450.98 70.1806 455.56 73.3606L481.89 91.6206C486.47 94.8006 489.01 100.181 488.55 105.731L485.9 137.671C485.44 143.231 482.05 148.111 477.01 150.491L448.03 164.161C442.99 166.541 437.06 166.051 432.48 162.871L406.15 144.611C401.57 141.431 399.03 136.051 399.49 130.501L402.14 98.5606C402.6 93.0006 405.99 88.1206 411.03 85.7406L440.01 72.0706Z" fill="#A2E5FF"/>
<path d="M442.96 93.3706C444.65 90.7306 448.61 91.0606 449.84 93.9406L454.2 104.181C454.67 105.291 455.64 106.121 456.81 106.431L467.58 109.231C470.62 110.021 471.53 113.891 469.16 115.951L460.77 123.251C459.86 124.051 459.36 125.221 459.44 126.431L460.11 137.531C460.3 140.661 456.9 142.721 454.21 141.111L444.67 135.401C443.63 134.781 442.36 134.671 441.24 135.121L430.88 139.191C427.96 140.341 424.95 137.741 425.65 134.691L428.14 123.851C428.41 122.671 428.12 121.431 427.35 120.501L420.28 111.911C418.29 109.491 419.82 105.821 422.95 105.541L434.02 104.561C435.22 104.451 436.31 103.791 436.96 102.771L442.96 93.3906V93.3706Z" fill="#0090D1"/>
<path d="M343.461 54.8697L330.854 53.8243C329.065 53.676 327.495 55.0059 327.346 56.7947C327.198 58.5835 328.528 60.1538 330.317 60.3021L342.923 61.3474C344.712 61.4958 346.283 60.1659 346.431 58.3771C346.579 56.5883 345.249 55.018 343.461 54.8697Z" fill="#BDCBDB"/>
<path d="M333.379 176.321L320.772 175.276C318.984 175.128 317.413 176.458 317.265 178.246C317.117 180.035 318.446 181.605 320.235 181.754L332.842 182.799C334.631 182.947 336.201 181.618 336.349 179.829C336.498 178.04 335.168 176.47 333.379 176.321Z" fill="#BDCBDB"/>
<path d="M353.515 16.3618C354.154 8.65625 348.167 1.87026 340.142 1.20487C332.117 0.539469 325.094 6.24663 324.455 13.9522C323.816 21.6577 329.803 28.4437 337.828 29.1091C345.853 29.7745 352.876 24.0673 353.515 16.3618Z" fill="#BDCBDB"/>
<path d="M328 296.321C329.55 287.221 329.04 278.151 326.76 269.251C326.48 267.951 326.05 266.691 325.81 265.311C332.84 273.681 334.31 287.161 327.99 296.321H328Z" fill="#EA9642"/>
<path d="M327.98 268.501L315.22 270.161" stroke="#FFAB4B" stroke-width="12.75" stroke-miterlimit="10" stroke-linecap="round"/>
<path d="M327.18 262.301C323.51 263.631 319.78 264.561 316.04 265.351C315.41 265.511 314.24 265.681 313.67 265.971C310.5 267.321 310.03 272.011 312.98 273.871C314.15 274.791 315.83 274.731 317.24 274.611C321.06 274.411 324.9 274.361 328.79 274.701C328.93 274.681 328.98 274.921 328.82 274.941C326.61 275.141 316.61 276.811 314.6 276.691C307.65 275.991 306.4 266.451 312.95 264.001C314.81 263.381 325.02 262.421 327.15 262.061C327.3 262.051 327.33 262.271 327.18 262.301Z" fill="#EA9642"/>
<path d="M330.869 281.701L317.689 283.051" stroke="#FFAB4B" stroke-width="12.75" stroke-miterlimit="10" stroke-linecap="round"/>
<path d="M330.239 275.521C326.499 277.041 322.699 278.021 318.879 278.811C318.689 278.861 317.319 279.131 317.169 279.181C315.319 279.601 313.929 281.561 314.199 283.411C314.299 285.281 316.069 286.921 317.969 286.951C318.119 286.971 319.529 286.971 319.719 286.971C323.619 286.971 327.529 287.161 331.509 287.881C331.609 287.881 331.699 287.961 331.679 288.071C331.669 288.141 331.609 288.191 331.539 288.201L319.979 289.461C312.999 291.191 307.929 283.521 313.109 278.231C314.559 276.761 316.699 276.401 318.629 276.301L330.209 275.191C330.409 275.191 330.449 275.461 330.239 275.511V275.521Z" fill="#EA9642"/>
<path d="M328.829 293.751L317.189 290.821" stroke="#FFAB4B" stroke-width="11.15" stroke-miterlimit="10" stroke-linecap="round"/>
<path d="M329.96 288.291C326.36 288.611 322.89 288.381 319.47 287.951L318.21 287.811C316.67 287.661 315.14 288.801 314.8 290.261C314.41 291.721 315.23 293.441 316.66 294.031L317.84 294.501C321.07 295.741 324.26 297.171 327.31 299.161C327.46 299.251 327.36 299.501 327.18 299.461C323.01 298.381 318.75 297.731 314.69 296.301C310.24 294.121 310.36 287.431 314.92 285.441C316.55 284.631 318.49 284.861 320.12 285.381C323.44 286.211 326.75 287.081 330.05 287.971C330.25 288.041 330.18 288.321 329.97 288.291H329.96Z" fill="#EA9642"/>
<path d="M310.76 261.741C310.76 261.741 318.48 262.461 322.21 270.851L326.63 280.451C328.1 283.651 326.7 287.431 323.51 288.901C320.31 290.371 316.53 288.971 315.06 285.781L311.6 278.271C308.28 283.441 300.61 280.161 300.61 280.161L299.27 267.161C299.27 267.161 301.62 261.741 310.76 261.731V261.741Z" fill="#FFAB4B"/>
<path d="M315.11 271.411L310.29 268.161" stroke="#FFAB4B" stroke-width="12.75" stroke-miterlimit="10" stroke-linecap="round"/>
<path d="M320.939 283.231L315.669 271.981" stroke="#FFAB4B" stroke-width="12.75" stroke-miterlimit="10" stroke-linecap="round"/>
<path d="M310.79 261.581C315.56 261.261 320.44 264.201 323.15 268.211C324.76 270.801 326.19 273.551 327.57 276.241C328.22 277.611 329.26 279.221 329.66 280.701C331.03 285.101 328.39 290.621 323.8 291.711L324.69 291.471C320.42 293.491 314.87 291.531 312.95 287.211C311.88 284.731 310.79 281.641 309.88 279.071L313.19 279.301C311.68 281.331 309.07 282.501 306.63 282.331C304.41 282.251 302.37 281.471 300.55 280.311C300.47 280.271 300.43 280.161 300.48 280.081C300.52 280.011 300.6 279.991 300.67 280.021C301.59 280.381 302.57 280.641 303.55 280.811C306.41 281.381 309.78 280.801 311.42 278.151C311.51 278.011 311.73 278.021 311.8 278.181L313.73 282.321C314.31 283.491 315.05 285.311 315.7 286.401C316.48 287.641 317.73 288.561 319.13 288.951C323.48 290.331 328 286.031 326.71 281.511C326.39 280.331 325.44 278.611 324.96 277.441C323.84 275.081 322.4 271.601 321.19 269.331C319.02 265.471 315.15 262.571 310.74 261.891C310.54 261.871 310.58 261.541 310.79 261.581Z" fill="#EA9642"/>
<path d="M277.7 265.742L279.586 301.853C279.815 306.221 283.541 309.577 287.909 309.349L295.578 308.948C299.946 308.72 303.303 304.994 303.074 300.626L301.188 264.515C300.96 260.147 297.234 256.791 292.866 257.019L285.196 257.42C280.828 257.648 277.472 261.374 277.7 265.742Z" fill="#103EFF"/>
</svg>
