<svg width="252" height="438" viewBox="0 0 252 438" fill="none" xmlns="http://www.w3.org/2000/svg">
<path d="M61.4304 254.495L32.1504 271.775" stroke="#1062FB" stroke-width="42" stroke-miterlimit="10" stroke-linecap="round"/>
<path d="M32.1504 271.775L41.9604 298.285" stroke="#1062FB" stroke-width="42" stroke-miterlimit="10" stroke-linecap="round"/>
<path d="M40.8306 242.295C40.8306 242.295 56.5506 230.675 68.2306 231.885L64.2806 265.345C64.2806 265.345 60.8306 245.155 40.8306 242.295Z" fill="#103EFF"/>
<path d="M57.9202 280.875L54.9502 274.175L61.1802 278.985L57.9202 280.875Z" fill="#103EFF"/>
<path d="M57.2103 325.815L51.7603 418.535C51.1303 428.775 59.2703 437.425 69.5203 437.425H90.7603C99.5003 437.425 106.95 431.075 108.33 422.445L123.21 341.545C124.56 333.105 119.73 324.895 111.69 321.995L81.0203 310.175C69.8503 306.135 57.9303 313.965 57.2003 325.825L57.2103 325.815Z" fill="#1062FB"/>
<path d="M37.8603 437.425H100.88C103.8 437.425 106.29 435.325 106.79 432.455L111.34 406.265H52.4503C42.0303 407.985 35.1803 414.325 32.9203 425.535L31.9703 430.245C31.2203 433.955 34.0603 437.425 37.8503 437.425H37.8603Z" fill="#D8E1FD"/>
<path d="M32.5503 427.355L31.9703 430.235C31.2203 433.945 34.0603 437.415 37.8503 437.415H100.92C103.84 437.415 106.33 435.315 106.83 432.445L107.71 427.355H32.5503Z" fill="#BCCBFD"/>
<path d="M52.3701 408.665L110.71 409.555L113.82 392.605H53.3501L52.3701 408.665Z" fill="#D8E1FD"/>
<path d="M52.3701 406.355C52.3701 406.355 56.0401 405.405 59.5401 405.605C64.8401 405.895 66.6601 406.255 79.1801 413.045C79.2801 413.095 79.6801 412.485 79.5701 412.325C78.4501 410.595 71.5101 400.465 59.3301 400.635C56.4501 400.675 52.8101 401.485 52.8101 401.485L52.3701 406.355Z" fill="#BCCBFD"/>
<path d="M53.3501 392.605H113.82L115.98 380.845H54.0701L53.3501 392.605Z" fill="#103EFF"/>
<path d="M116.53 377.845L121.84 348.915L107.76 342.645L116.53 377.845Z" fill="#103EFF"/>
<path d="M193.181 325.815L198.631 418.535C199.261 428.775 191.121 437.425 180.871 437.425H159.631C150.891 437.425 143.441 431.075 142.061 422.445L127.181 341.545C125.831 333.105 130.661 324.895 138.701 321.995L169.371 310.175C180.541 306.135 192.461 313.965 193.191 325.825L193.181 325.815Z" fill="#1062FB"/>
<path d="M212.531 437.425H149.511C146.591 437.425 144.101 435.325 143.601 432.455L139.051 406.265H197.941C208.361 407.985 215.211 414.325 217.471 425.535L218.421 430.245C219.171 433.955 216.331 437.425 212.541 437.425H212.531Z" fill="#D8E1FD"/>
<path d="M217.831 427.355L218.411 430.235C219.161 433.945 216.321 437.415 212.531 437.415H149.461C146.541 437.415 144.051 435.315 143.551 432.445L142.671 427.355H217.841H217.831Z" fill="#BCCBFD"/>
<path d="M198.021 408.665L139.681 409.555L136.571 392.605H197.041L198.021 408.665Z" fill="#D8E1FD"/>
<path d="M198.021 406.355C198.021 406.355 194.351 405.405 190.851 405.605C185.551 405.895 183.731 406.255 171.211 413.045C171.111 413.095 170.711 412.485 170.821 412.325C171.941 410.595 178.881 400.465 191.061 400.635C193.941 400.675 197.581 401.485 197.581 401.485L198.021 406.355Z" fill="#BCCBFD"/>
<path d="M197.041 392.605H136.571L134.411 380.845H196.321L197.041 392.605Z" fill="#103EFF"/>
<path d="M133.861 377.845L128.541 348.915L142.631 342.645L133.861 377.845Z" fill="#103EFF"/>
<path d="M162.751 357.135H87.6305C70.0005 357.135 56.0605 342.275 57.2605 324.775L68.8805 226.355C69.9705 210.455 83.2405 201.745 99.2505 201.745H151.141C167.151 201.745 180.421 210.455 181.511 226.355L193.131 324.775C194.331 342.285 180.381 357.135 162.761 357.135H162.751Z" fill="#1062FB"/>
<path d="M84.8706 350.115C95.8306 359.765 109.841 362.625 125.111 362.625C140.381 362.625 154.391 359.765 165.351 350.115C165.351 350.115 143.891 353.045 125.111 353.045C106.331 353.045 84.8706 350.115 84.8706 350.115Z" fill="#103EFF"/>
<path d="M138.091 238.085H113.721V314.155H138.091V238.085Z" fill="#0128FC"/>
<path d="M68.5806 228.915L67.6206 237.035C81.1206 245.145 101.501 249.375 125.331 249.375C149.161 249.375 169.291 244.695 182.711 236.465L181.841 229.105C169.721 237.875 149.431 242.845 125.331 242.845C101.231 242.845 80.8206 237.655 68.5806 228.915Z" fill="#103EFF"/>
<path d="M125.321 242.845C159.151 242.845 186.581 232.585 186.581 219.925C186.581 207.265 159.151 197.005 125.321 197.005C91.4905 197.005 64.0605 207.265 64.0605 219.925C64.0605 232.585 91.4905 242.845 125.321 242.845Z" fill="#BCCBFD"/>
<path d="M196.48 308.155C196.15 305.415 193.61 303.495 190.89 303.925C168.57 307.475 152.94 307.735 125.9 307.735C98.8603 307.735 82.6103 307.665 59.8703 303.945C57.1303 303.495 54.5803 305.415 54.2503 308.165C53.8203 311.755 53.4003 315.485 53.0003 319.345C52.7303 321.905 54.5003 324.235 57.0403 324.675C80.4403 328.695 96.9903 328.945 125.9 328.945C154.81 328.945 170.7 328.515 193.68 324.685C196.23 324.265 198.01 321.925 197.74 319.355C197.34 315.485 196.92 311.755 196.49 308.155H196.48Z" fill="#BCCBFD"/>
<path d="M154.39 309.455C154.26 306.445 151.72 304.105 148.72 304.235C141.26 304.555 133.65 304.725 125.89 304.725C117.49 304.725 109.23 304.525 101.18 304.155C98.1701 304.015 95.6201 306.355 95.4901 309.375L94.7801 325.615C94.6501 328.625 96.9801 331.165 99.9901 331.315C108.42 331.725 117.07 331.945 125.89 331.945C134.04 331.945 142.05 331.755 149.88 331.405C152.9 331.265 155.24 328.725 155.11 325.705L154.4 309.465L154.39 309.455Z" fill="#D8E1FD"/>
<path d="M105.861 322.825C108.5 322.825 110.641 320.685 110.641 318.045C110.641 315.405 108.5 313.265 105.861 313.265C103.221 313.265 101.081 315.405 101.081 318.045C101.081 320.685 103.221 322.825 105.861 322.825Z" fill="#11AD00"/>
<path d="M118.67 323.825C121.31 323.825 123.45 321.685 123.45 319.045C123.45 316.405 121.31 314.265 118.67 314.265C116.03 314.265 113.89 316.405 113.89 319.045C113.89 321.685 116.03 323.825 118.67 323.825Z" fill="#11AD00"/>
<path d="M131.48 323.825C134.12 323.825 136.26 321.685 136.26 319.045C136.26 316.405 134.12 314.265 131.48 314.265C128.84 314.265 126.7 316.405 126.7 319.045C126.7 321.685 128.84 323.825 131.48 323.825Z" fill="#E8A600"/>
<path d="M144.29 322.825C146.93 322.825 149.07 320.685 149.07 318.045C149.07 315.405 146.93 313.265 144.29 313.265C141.65 313.265 139.51 315.405 139.51 318.045C139.51 320.685 141.65 322.825 144.29 322.825Z" fill="#FF3B00"/>
<path d="M74.9429 318.704L71.5305 312.093C68.6986 306.606 61.9549 304.454 56.4681 307.286L41.4149 315.055C35.9281 317.887 33.7759 324.631 36.6079 330.118L40.0202 336.729C42.8522 342.216 49.5959 344.368 55.0827 341.536L70.1359 333.767C75.6227 330.935 77.7748 324.191 74.9429 318.704Z" fill="#FFAB4B"/>
<path d="M33.9728 336.167L33.9717 336.177C33.678 338.867 35.6208 341.286 38.311 341.58L46.6713 342.492C49.3615 342.786 51.7805 340.843 52.0741 338.153L52.0752 338.143C52.3689 335.453 50.4261 333.034 47.7359 332.74L39.3756 331.828C36.6854 331.534 34.2664 333.477 33.9728 336.167Z" fill="#FFAB4B"/>
<path d="M58.1548 290.956L27.3188 304.724C23.4911 306.433 21.7736 310.921 23.4826 314.749L26.3242 321.113C28.0332 324.941 32.5215 326.659 36.3492 324.95L67.1852 311.182C71.0128 309.473 72.7304 304.985 71.0214 301.157L68.1797 294.792C66.4708 290.965 61.9824 289.247 58.1548 290.956Z" fill="#103EFF"/>
<path d="M188.86 254.495L218.15 271.775" stroke="#1062FB" stroke-width="42" stroke-miterlimit="10" stroke-linecap="round"/>
<path d="M218.15 271.775L208.34 298.285" stroke="#1062FB" stroke-width="42" stroke-miterlimit="10" stroke-linecap="round"/>
<path d="M209.47 242.295C209.47 242.295 193.75 230.675 182.07 231.885L186.02 265.345C186.02 265.345 189.47 245.155 209.47 242.295Z" fill="#103EFF"/>
<path d="M192.38 280.875L195.35 274.175L189.12 278.985L192.38 280.875Z" fill="#103EFF"/>
<path d="M210.3 336.678L213.713 330.066C216.545 324.58 214.392 317.836 208.906 315.004L193.852 307.234C188.366 304.403 181.622 306.555 178.79 312.042L175.378 318.653C172.546 324.14 174.698 330.883 180.185 333.715L195.238 341.485C200.725 344.317 207.468 342.165 210.3 336.678Z" fill="#FFAB4B"/>
<path d="M198.209 338.091L198.21 338.101C198.504 340.791 200.923 342.734 203.613 342.44L211.974 341.528C214.664 341.234 216.607 338.815 216.313 336.125L216.312 336.115C216.018 333.425 213.599 331.482 210.909 331.776L202.549 332.688C199.858 332.982 197.916 335.401 198.209 338.091Z" fill="#FFAB4B"/>
<path d="M183.135 311.19L213.971 324.958C217.799 326.667 222.287 324.949 223.996 321.122L226.838 314.757C228.547 310.93 226.829 306.441 223.002 304.732L192.166 290.964C188.338 289.255 183.85 290.973 182.141 294.801L179.299 301.165C177.59 304.993 179.308 309.481 183.135 311.19Z" fill="#103EFF"/>
<path d="M13.3607 1.85489C33.7907 -11.6751 69.6507 53.2249 101.861 64.1049V126.255H41.9307C33.1807 126.255 17.5707 119.015 12.2207 101.515C5.56073 79.6249 -12.1793 18.7949 13.3607 1.85489Z" fill="#FFAB4B"/>
<path fill-rule="evenodd" clip-rule="evenodd" d="M4.18075 71.1049C7.16075 64.7149 15.6307 48.3549 28.6407 38.6049C38.1507 31.4649 48.2707 27.6749 55.0807 25.6949C38.8107 8.95494 24.0007 -5.18506 13.3607 1.85494C-3.94925 13.3549 -1.39925 45.0949 4.18075 71.1049Z" fill="#1062FB"/>
<path d="M12.5108 14.015C25.9008 3.79496 55.5508 64.485 76.9808 73.095V121.205H43.5408C32.3308 120.305 21.6908 112.025 18.0008 101.005C12.5108 84.445 -4.23918 26.785 12.5108 14.015Z" fill="#FFCE96"/>
<path d="M238.191 1.85489C217.761 -11.6751 181.901 53.2249 149.691 64.1049V126.255H209.621C218.371 126.255 233.981 119.015 239.331 101.515C246.001 79.6149 263.741 18.7849 238.191 1.85489Z" fill="#FFAB4B"/>
<path fill-rule="evenodd" clip-rule="evenodd" d="M247.371 71.1049C244.391 64.7149 235.921 48.3549 222.911 38.6049C213.401 31.4649 203.281 27.6749 196.471 25.6949C212.741 8.95491 227.551 -5.19509 238.191 1.85491C255.501 13.3449 252.951 45.0849 247.371 71.1049Z" fill="#1062FB"/>
<path d="M239.051 14.015C225.661 3.79496 196.011 64.485 174.581 73.095V121.205H208.021C219.231 120.305 229.871 112.025 233.561 101.005C239.051 84.445 255.791 26.785 239.051 14.015Z" fill="#FFCE96"/>
<path d="M125.471 208.475C172.021 208.475 209.761 172.955 209.761 129.145C209.761 85.3349 172.021 49.8149 125.471 49.8149C78.9207 49.8149 41.1807 85.3349 41.1807 129.145C41.1807 172.955 78.9207 208.475 125.471 208.475Z" fill="#FFAB4B"/>
<path d="M226.271 177.135C225.391 175.185 224.361 173.205 223.191 171.225C224.141 170.705 224.961 169.915 225.541 168.895C226.611 167.035 226.631 164.725 225.581 162.865C219.021 151.485 210.521 144.665 206.021 141.595C203.891 140.175 201.231 140.095 198.981 141.435C198.431 141.795 197.941 142.205 197.531 142.675C195.081 141.735 192.411 140.925 189.421 140.205C173.571 136.445 151.841 136.445 128.821 136.445H121.721C98.7308 136.445 77.0108 136.445 61.1008 140.205C58.2108 140.905 55.4708 141.765 52.9308 142.745C52.4808 142.215 51.9508 141.755 51.3608 141.395C49.2108 140.075 46.5308 140.145 44.3508 141.595C39.8908 144.605 31.4208 151.375 24.7908 162.875C23.7708 164.695 23.7808 166.925 24.8508 168.885C25.4308 169.895 26.2408 170.685 27.1808 171.205C26.2208 172.815 25.1408 174.825 24.1208 177.135C23.0308 179.595 23.6108 182.435 25.6208 184.355C27.0408 185.715 29.0008 186.415 30.9108 186.325C30.9708 187.035 31.1708 187.735 31.5208 188.395L31.5708 188.485C32.5608 190.195 34.3208 191.255 36.3808 191.335C36.5908 191.335 36.8108 191.345 37.0708 191.375C41.7008 200.065 49.6708 207.835 60.2008 213.895C77.0308 223.595 100.151 228.935 125.301 228.935C150.451 228.935 173.491 223.595 190.401 213.895C201.131 207.725 208.911 200.155 213.561 191.375C213.681 191.375 213.811 191.355 213.931 191.345H214.091C216.101 191.255 217.911 190.145 218.831 188.435C219.211 187.755 219.441 187.025 219.501 186.295C221.401 186.335 223.321 185.665 224.751 184.345C226.761 182.425 227.351 179.595 226.251 177.125L226.271 177.135Z" fill="#FFAB4B"/>
<path d="M176.741 154.315C168.461 156.015 159.951 152.425 155.361 145.095C148.971 134.925 137.861 128.165 125.231 128.165C112.601 128.165 101.481 134.925 95.1006 145.095C90.5606 152.375 82.0006 155.975 73.7206 154.315C54.6606 150.435 42.4106 149.825 42.4106 168.455C42.4106 200.905 87.9106 225.125 125.191 225.125C162.471 225.125 207.971 200.905 207.971 168.455C208.061 149.815 195.811 150.435 176.751 154.315H176.741Z" fill="white"/>
<path d="M143.061 130.525C143.061 119.175 152.241 109.995 163.591 109.995C174.941 109.995 184.121 119.175 184.121 130.525V139.515C184.121 140.935 183.131 142.115 181.751 142.405L147.361 149.265C145.141 149.695 143.101 148.035 143.101 145.765V130.535H143.051L143.061 130.525Z" fill="white"/>
<path d="M107.351 130.525C107.351 119.175 98.1705 109.995 86.8205 109.995C75.4705 109.995 66.2905 119.175 66.2905 130.525V139.515C66.2905 140.935 67.2805 142.115 68.6605 142.405L103.051 149.265C105.271 149.695 107.311 148.035 107.311 145.765V130.535H107.361L107.351 130.525Z" fill="white"/>
<path d="M160.851 142.445C168.241 142.445 174.241 136.685 174.241 129.575C174.241 122.465 168.251 116.705 160.851 116.705C153.451 116.705 147.461 122.465 147.461 129.575C147.461 136.685 153.451 142.445 160.851 142.445Z" fill="black"/>
<path d="M167.521 123.375C169.111 123.375 170.411 121.875 170.411 120.015C170.411 118.155 169.121 116.655 167.521 116.655C165.921 116.655 164.631 118.155 164.631 120.015C164.631 121.875 165.921 123.375 167.521 123.375Z" fill="white"/>
<path d="M89.5609 142.445C96.9509 142.445 102.951 136.685 102.951 129.575C102.951 122.465 96.9609 116.705 89.5609 116.705C82.1609 116.705 76.1709 122.465 76.1709 129.575C76.1709 136.685 82.1609 142.445 89.5609 142.445Z" fill="black"/>
<path d="M97.2308 123.375C98.8208 123.375 100.121 121.875 100.121 120.015C100.121 118.155 98.8308 116.655 97.2308 116.655C95.6308 116.655 94.3408 118.155 94.3408 120.015C94.3408 121.875 95.6308 123.375 97.2308 123.375Z" fill="white"/>
<path d="M125.181 162.685C134.901 162.685 142.781 157.115 142.781 150.245C142.781 143.375 134.901 137.805 125.181 137.805C115.461 137.805 107.581 143.375 107.581 150.245C107.581 157.115 115.461 162.685 125.181 162.685Z" fill="black"/>
<path d="M125.371 147.405C130.521 147.405 134.691 145.625 134.691 143.435C134.691 141.245 130.521 139.465 125.371 139.465C120.221 139.465 116.051 141.245 116.051 143.435C116.051 145.625 120.221 147.405 125.371 147.405Z" fill="#3C3835"/>
<path d="M151.981 53.845L148.221 64.295L136.111 66.045L125.851 94.705L115.591 66.045L103.481 64.295L99.6405 53.635C96.0805 54.715 92.6305 55.995 89.2905 57.495L93.0705 67.995C94.4405 71.825 97.8005 74.565 101.821 75.135L107.401 75.935L119.041 110.135C121.221 116.525 130.301 116.525 132.471 110.135L144.111 75.935L149.691 75.135C153.711 74.565 157.071 71.825 158.441 67.995L162.141 57.715C158.871 56.225 155.471 54.945 151.981 53.855V53.845Z" fill="#FFCE96"/>
<path d="M107.301 59.5649L119.411 61.3149L125.841 79.2849L132.271 61.3149L144.381 59.5649L146.371 54.0749L134.211 55.8249L136.151 50.4749C134.391 50.2649 132.611 50.1049 130.821 49.9949L125.841 63.9649L120.841 49.9449C119.041 50.0349 117.261 50.1949 115.501 50.3949L117.471 55.8349L105.311 54.0849L107.301 59.5749V59.5649Z" fill="#FFCE96"/>
<path d="M178.681 101.765C171.251 98.0249 162.691 96.7549 159.341 96.6049" stroke="#DB811A" stroke-width="9.46" stroke-linecap="round"/>
<path d="M90.6208 96.575C87.2608 96.715 78.7008 97.995 71.2808 101.735" stroke="#DB811A" stroke-width="9.46" stroke-linecap="round"/>
<path d="M149.691 167.855C143.931 175.085 135.061 179.715 125.101 179.715C115.141 179.715 106.721 175.315 100.961 168.405" stroke="black" stroke-width="3" stroke-linecap="round" stroke-linejoin="round"/>
</svg>
