<svg width="263" height="376" viewBox="0 0 263 376" fill="none" xmlns="http://www.w3.org/2000/svg">
<path d="M185.565 252.825L202.425 286.705" stroke="#1062FB" stroke-width="44" stroke-miterlimit="10" stroke-linecap="round"/>
<path d="M202.425 286.705L219.645 320.435" stroke="#1062FB" stroke-width="44" stroke-miterlimit="10" stroke-linecap="round"/>
<path d="M256.825 345.535L243.775 345.275" stroke="#FFAB4B" stroke-width="11.78" stroke-miterlimit="10" stroke-linecap="round"/>
<path d="M252.745 339.555L238.485 341.085" stroke="#FFAB4B" stroke-width="11.78" stroke-miterlimit="10" stroke-linecap="round"/>
<path d="M223.355 352.235L216.355 343.235" stroke="#FFAB4B" stroke-width="11.78" stroke-miterlimit="10" stroke-linecap="round"/>
<path d="M243.055 351.145C247.985 351.045 250.485 345.585 249.635 340.725L243.665 331.145C239.755 324.955 232.605 322.115 228.465 322.445L212.495 328.065C209.845 328.955 208.215 331.615 208.635 334.375L209.785 341.935C209.715 346.865 214.685 348.955 219.555 348.215C231.565 346.395 228.945 351.425 243.045 351.145H243.055Z" fill="#FFAB4B"/>
<path d="M208.745 332.145C208.745 332.145 208.065 342.145 210.465 345.855C215.005 352.875 218.725 355.745 218.725 355.745H223.315L218.125 342.005L208.745 332.135V332.145Z" fill="#FFAB4B"/>
<path d="M228.095 348.945C226.625 347.775 221.675 340.535 224.955 339.665C225.745 339.485 226.525 339.985 226.705 340.765C226.795 341.505 226.645 342.235 226.775 343.005C226.985 344.915 227.645 346.805 228.625 348.485C228.865 348.825 228.375 349.235 228.085 348.935L228.095 348.945Z" fill="#EA9642"/>
<path d="M245.415 336.095C244.795 339.385 243.475 342.855 240.245 344.575C239.715 344.855 239.055 344.655 238.765 344.115C238.455 343.535 238.745 342.795 239.365 342.575C242.075 341.595 243.655 338.565 244.535 335.875C244.695 335.345 245.525 335.555 245.415 336.095Z" fill="#EA9642"/>
<path d="M256.775 340.205C252.965 341.575 248.865 341.745 244.905 340.655C244.025 340.415 243.515 339.515 243.755 338.635C244.015 337.615 245.225 337.115 246.135 337.625C249.235 339.345 253.055 340.025 256.625 339.595C256.985 339.545 257.125 340.095 256.775 340.205Z" fill="#EA9642"/>
<path d="M184.875 269.765L168.795 238.575C170.665 236.375 173.005 234.505 175.755 233.135C186.635 227.725 199.835 232.145 205.255 243.025L209.395 251.345C192.025 247.255 184.885 269.705 184.875 269.775V269.765Z" fill="#174EFF"/>
<path d="M214.335 319.305L199.905 322.415L196.495 259.045L214.335 319.305Z" fill="#174EFF"/>
<path d="M235.048 310.077L203.834 320.345C200.099 321.574 198.067 325.598 199.296 329.334L201.177 335.052C202.406 338.788 206.43 340.819 210.165 339.591L241.38 329.322C245.115 328.093 247.147 324.069 245.918 320.333L244.037 314.615C242.808 310.88 238.784 308.848 235.048 310.077Z" fill="#103EFF"/>
<path d="M77.4347 252.825L60.5647 286.705" stroke="#1062FB" stroke-width="44" stroke-miterlimit="10" stroke-linecap="round"/>
<path d="M60.5647 286.705L43.3547 320.435" stroke="#1062FB" stroke-width="44" stroke-miterlimit="10" stroke-linecap="round"/>
<path d="M6.1748 345.535L19.2248 345.275" stroke="#FFAB4B" stroke-width="11.78" stroke-miterlimit="10" stroke-linecap="round"/>
<path d="M10.2549 339.555L24.5149 341.085" stroke="#FFAB4B" stroke-width="11.78" stroke-miterlimit="10" stroke-linecap="round"/>
<path d="M39.6348 352.235L46.6348 343.235" stroke="#FFAB4B" stroke-width="11.78" stroke-miterlimit="10" stroke-linecap="round"/>
<path d="M19.9348 351.145C15.0048 351.045 12.5048 345.585 13.3548 340.725L19.3248 331.145C23.2348 324.955 30.3848 322.115 34.5248 322.445L50.4948 328.065C53.1448 328.955 54.7748 331.615 54.3548 334.375L53.2048 341.935C53.2748 346.865 48.3048 348.955 43.4348 348.215C31.4248 346.395 34.0448 351.425 19.9448 351.145H19.9348Z" fill="#FFAB4B"/>
<path d="M54.2448 332.145C54.2448 332.145 54.9248 342.145 52.5248 345.855C47.9848 352.875 44.2648 355.745 44.2648 355.745H39.6748L44.8648 342.005L54.2448 332.135V332.145Z" fill="#FFAB4B"/>
<path d="M34.3648 348.495C35.3448 346.815 36.0048 344.925 36.2148 343.015C36.2948 342.385 36.2848 341.765 36.2548 341.165C36.2248 340.355 36.8448 339.675 37.6548 339.645C40.7048 339.875 38.2748 344.125 37.5248 345.595C36.7848 346.845 35.9248 347.965 34.9048 348.965C34.7648 349.105 34.5448 349.095 34.4048 348.965C34.2848 348.845 34.2748 348.655 34.3648 348.515V348.495Z" fill="#EA9642"/>
<path d="M18.4647 335.875C19.3347 338.575 20.9247 341.605 23.6347 342.575C24.2047 342.775 24.5047 343.405 24.2947 343.975C23.0847 346.395 19.5947 341.945 19.1247 340.785C18.3447 339.285 17.8747 337.695 17.5947 336.095C17.5547 335.845 17.7147 335.615 17.9647 335.565C18.1947 335.525 18.4047 335.655 18.4747 335.875H18.4647Z" fill="#EA9642"/>
<path d="M6.40481 339.595C9.97481 340.025 13.7748 339.335 16.8748 337.625C19.0448 336.555 20.4148 339.915 18.0948 340.655C15.0948 341.485 12.0548 341.565 9.06481 340.985C8.09481 340.795 7.15481 340.555 6.22481 340.195C6.06481 340.135 5.97481 339.945 6.03481 339.785C6.09481 339.635 6.24481 339.555 6.39481 339.585L6.40481 339.595Z" fill="#EA9642"/>
<path d="M78.1247 269.765L94.2047 238.575C92.3347 236.375 89.9947 234.505 87.2447 233.135C76.3647 227.725 63.1647 232.145 57.7447 243.025L53.6047 251.345C70.9747 247.255 78.1147 269.705 78.1247 269.775V269.765Z" fill="#174EFF"/>
<path d="M47.0049 320.435L63.0949 322.415L66.5049 259.045L47.0049 320.435Z" fill="#174EFF"/>
<path d="M21.6473 329.345L52.8616 339.614C56.5969 340.843 60.6212 338.811 61.85 335.075L63.7313 329.357C64.9601 325.622 62.9282 321.597 59.1929 320.369L27.9786 310.1C24.2432 308.871 20.219 310.903 18.9901 314.638L17.1089 320.357C15.8801 324.092 17.912 328.116 21.6473 329.345Z" fill="#103EFF"/>
<path d="M173.505 354.865H88.4648C70.4348 354.865 56.1648 339.665 57.3948 321.755L71.2748 223.055C72.3848 206.785 85.9648 194.155 102.345 194.155H159.615C175.995 194.155 189.575 206.785 190.685 223.055L204.565 321.755C205.785 339.665 191.525 354.865 173.495 354.865H173.505Z" fill="#1062FB"/>
<path d="M90.5046 343.575C101.715 353.445 116.055 356.375 131.675 356.375C147.295 356.375 161.635 353.445 172.845 343.575C172.845 343.575 150.895 346.575 131.675 346.575C112.455 346.575 90.5046 343.575 90.5046 343.575Z" fill="#103EFF"/>
<path d="M144.185 235.065H119.245V312.895H144.185V235.065Z" fill="#0128FC"/>
<path d="M131.115 241.935C166.795 241.935 195.725 231.015 195.725 217.545C195.725 204.075 166.795 193.155 131.115 193.155C95.4346 193.155 66.5046 204.075 66.5046 217.545C66.5046 231.015 95.4346 241.935 131.115 241.935Z" fill="#BCCBFD"/>
<path d="M70.8648 226.005L69.6948 234.475C83.4248 243.765 105.295 248.615 131.115 248.615C156.935 248.615 178.505 243.245 192.185 233.875L191.125 226.175C179.065 236.205 157.295 241.935 131.115 241.935C104.935 241.935 83.0248 235.955 70.8648 226.015V226.005Z" fill="#005CE2"/>
<path d="M205.265 303.085C204.935 300.345 202.395 298.425 199.675 298.855C177.355 302.405 158.725 303.665 131.685 303.665C104.645 303.665 84.3947 302.595 61.6547 298.875C58.9147 298.425 56.3647 300.345 56.0347 303.095C55.6047 306.685 55.1847 310.415 54.7847 314.275C54.5147 316.835 56.2848 319.165 58.8248 319.605C82.2248 323.625 102.775 324.875 131.685 324.875C160.595 324.875 179.485 323.445 202.465 319.615C205.015 319.195 206.795 316.855 206.525 314.285C206.125 310.415 205.705 306.685 205.275 303.085H205.265Z" fill="#BCCBFD"/>
<path d="M160.185 305.385C160.055 302.375 157.515 300.035 154.515 300.165C147.055 300.485 139.445 300.655 131.685 300.655C123.285 300.655 115.025 300.455 106.975 300.085C103.965 299.945 101.415 302.285 101.285 305.305L100.575 321.545C100.445 324.555 102.775 327.095 105.785 327.245C114.215 327.655 122.865 327.875 131.685 327.875C139.835 327.875 147.845 327.685 155.675 327.335C158.695 327.195 161.035 324.655 160.905 321.635L160.195 305.395L160.185 305.385Z" fill="#D8E1FD"/>
<path d="M111.645 318.755C114.285 318.755 116.425 316.615 116.425 313.975C116.425 311.335 114.285 309.195 111.645 309.195C109.005 309.195 106.865 311.335 106.865 313.975C106.865 316.615 109.005 318.755 111.645 318.755Z" fill="#11AD00"/>
<path d="M124.455 319.755C127.095 319.755 129.235 317.615 129.235 314.975C129.235 312.335 127.095 310.195 124.455 310.195C121.815 310.195 119.675 312.335 119.675 314.975C119.675 317.615 121.815 319.755 124.455 319.755Z" fill="#11AD00"/>
<path d="M137.265 319.755C139.905 319.755 142.045 317.615 142.045 314.975C142.045 312.335 139.905 310.195 137.265 310.195C134.625 310.195 132.485 312.335 132.485 314.975C132.485 317.615 134.625 319.755 137.265 319.755Z" fill="#E8A600"/>
<path d="M150.075 318.755C152.715 318.755 154.855 316.615 154.855 313.975C154.855 311.335 152.715 309.195 150.075 309.195C147.435 309.195 145.295 311.335 145.295 313.975C145.295 316.615 147.435 318.755 150.075 318.755Z" fill="#FF3B00"/>
<path d="M19.7349 1.85477C40.1649 -11.6752 76.0249 53.2248 108.235 64.1048V126.255H48.3049C39.5549 126.255 23.9449 119.015 18.5949 101.515C11.9249 79.6248 -5.80514 18.7948 19.7349 1.85477Z" fill="#FFAB4B"/>
<path fill-rule="evenodd" clip-rule="evenodd" d="M10.5548 71.1047C13.5348 64.7147 22.0048 48.3547 35.0148 38.6047C44.5248 31.4647 54.6448 27.6747 61.4548 25.6947C45.1848 8.95469 30.3748 -5.18531 19.7348 1.85469C2.42477 13.3547 4.97477 45.0947 10.5548 71.1047Z" fill="#1062FB"/>
<path d="M18.8848 14.0146C32.2748 3.79459 61.9248 64.4846 83.3548 73.0946V121.205H49.9148C38.7048 120.305 28.0648 112.025 24.3748 101.005C18.8848 84.4446 2.13485 26.7846 18.8848 14.0146Z" fill="#FFCE96"/>
<path d="M244.565 1.85477C224.135 -11.6752 188.275 53.2248 156.065 64.1048V126.255H215.995C224.745 126.255 240.355 119.015 245.705 101.515C252.375 79.6148 270.115 18.7848 244.565 1.85477Z" fill="#FFAB4B"/>
<path fill-rule="evenodd" clip-rule="evenodd" d="M253.745 71.1049C250.765 64.7149 242.295 48.3549 229.285 38.6049C219.775 31.4649 209.655 27.6749 202.845 25.6949C219.115 8.95491 233.925 -5.19509 244.565 1.85491C261.875 13.3449 259.325 45.0849 253.745 71.1049Z" fill="#1062FB"/>
<path d="M245.415 14.0151C232.025 3.79508 202.375 64.4851 180.945 73.0951V121.205H214.385C225.595 120.305 236.235 112.025 239.925 101.005C245.415 84.4451 262.155 26.7851 245.415 14.0151Z" fill="#FFCE96"/>
<path d="M131.835 208.475C178.385 208.475 216.125 172.955 216.125 129.145C216.125 85.3349 178.385 49.8149 131.835 49.8149C85.2847 49.8149 47.5447 85.3349 47.5447 129.145C47.5447 172.955 85.2847 208.475 131.835 208.475Z" fill="#FFAB4B"/>
<path d="M232.645 177.135C231.765 175.185 230.735 173.205 229.565 171.225C230.515 170.705 231.335 169.915 231.915 168.895C232.985 167.035 233.005 164.725 231.955 162.865C225.395 151.485 216.895 144.665 212.395 141.595C210.265 140.175 207.605 140.095 205.355 141.435C204.805 141.795 204.315 142.205 203.905 142.675C201.455 141.735 198.785 140.925 195.795 140.205C179.945 136.445 158.215 136.445 135.195 136.445H128.095C105.105 136.445 83.3849 136.445 67.4749 140.205C64.5849 140.905 61.8449 141.765 59.3049 142.745C58.8549 142.215 58.3249 141.755 57.7349 141.395C55.5849 140.075 52.9049 140.145 50.7249 141.595C46.2649 144.605 37.7949 151.375 31.1649 162.875C30.1449 164.695 30.1549 166.925 31.2249 168.885C31.8049 169.895 32.6149 170.685 33.5549 171.205C32.5949 172.815 31.5149 174.825 30.4949 177.135C29.4049 179.595 29.9849 182.435 31.9949 184.355C33.4149 185.715 35.3749 186.415 37.2849 186.325C37.3449 187.035 37.5449 187.735 37.8949 188.395L37.9449 188.485C38.9349 190.195 40.6949 191.255 42.7549 191.335C42.9649 191.335 43.1849 191.345 43.4449 191.375C48.0749 200.065 56.0449 207.835 66.5749 213.895C83.4049 223.595 106.525 228.935 131.675 228.935C156.825 228.935 179.865 223.595 196.775 213.895C207.505 207.725 215.285 200.155 219.935 191.375C220.055 191.375 220.185 191.355 220.305 191.345H220.465C222.475 191.255 224.285 190.145 225.205 188.435C225.585 187.755 225.815 187.025 225.875 186.295C227.775 186.335 229.695 185.665 231.125 184.345C233.135 182.425 233.725 179.595 232.625 177.125L232.645 177.135Z" fill="#FFAB4B"/>
<path d="M183.115 154.315C174.835 156.015 166.325 152.425 161.735 145.095C155.345 134.925 144.235 128.165 131.605 128.165C118.975 128.165 107.855 134.925 101.475 145.095C96.9347 152.375 88.3747 155.975 80.0947 154.315C61.0347 150.435 48.7847 149.825 48.7847 168.455C48.7847 200.905 94.2847 225.125 131.565 225.125C168.845 225.125 214.345 200.905 214.345 168.455C214.435 149.815 202.185 150.435 183.125 154.315H183.115Z" fill="white"/>
<path d="M149.435 130.525C149.435 119.175 158.615 109.995 169.965 109.995C181.315 109.995 190.495 119.175 190.495 130.525V139.515C190.495 140.935 189.505 142.115 188.125 142.405L153.735 149.265C151.515 149.695 149.475 148.035 149.475 145.765V130.535H149.425L149.435 130.525Z" fill="white"/>
<path d="M113.725 130.525C113.725 119.175 104.545 109.995 93.1948 109.995C81.8448 109.995 72.6648 119.175 72.6648 130.525V139.515C72.6648 140.935 73.6548 142.115 75.0348 142.405L109.425 149.265C111.645 149.695 113.685 148.035 113.685 145.765V130.535H113.735L113.725 130.525Z" fill="white"/>
<path d="M167.225 142.445C174.615 142.445 180.615 136.685 180.615 129.575C180.615 122.465 174.625 116.705 167.225 116.705C159.825 116.705 153.835 122.465 153.835 129.575C153.835 136.685 159.825 142.445 167.225 142.445Z" fill="black"/>
<path d="M173.895 123.375C175.485 123.375 176.785 121.875 176.785 120.015C176.785 118.155 175.495 116.655 173.895 116.655C172.295 116.655 171.005 118.155 171.005 120.015C171.005 121.875 172.295 123.375 173.895 123.375Z" fill="white"/>
<path d="M95.9347 142.445C103.325 142.445 109.325 136.685 109.325 129.575C109.325 122.465 103.335 116.705 95.9347 116.705C88.5347 116.705 82.5447 122.465 82.5447 129.575C82.5447 136.685 88.5347 142.445 95.9347 142.445Z" fill="black"/>
<path d="M103.605 123.375C105.195 123.375 106.495 121.875 106.495 120.015C106.495 118.155 105.205 116.655 103.605 116.655C102.005 116.655 100.715 118.155 100.715 120.015C100.715 121.875 102.005 123.375 103.605 123.375Z" fill="white"/>
<path d="M131.555 162.685C141.275 162.685 149.155 157.115 149.155 150.245C149.155 143.375 141.275 137.805 131.555 137.805C121.835 137.805 113.955 143.375 113.955 150.245C113.955 157.115 121.835 162.685 131.555 162.685Z" fill="black"/>
<path d="M131.745 147.405C136.895 147.405 141.065 145.625 141.065 143.435C141.065 141.245 136.895 139.465 131.745 139.465C126.595 139.465 122.425 141.245 122.425 143.435C122.425 145.625 126.595 147.405 131.745 147.405Z" fill="#3C3835"/>
<path d="M158.345 53.8448L154.585 64.2948L142.475 66.0448L132.215 94.7048L121.955 66.0448L109.845 64.2948L106.005 53.6348C102.445 54.7148 98.9948 55.9948 95.6548 57.4948L99.4348 67.9948C100.805 71.8248 104.165 74.5648 108.185 75.1348L113.765 75.9348L125.405 110.135C127.585 116.525 136.665 116.525 138.835 110.135L150.475 75.9348L156.055 75.1348C160.075 74.5648 163.435 71.8248 164.805 67.9948L168.505 57.7148C165.235 56.2248 161.835 54.9448 158.345 53.8548V53.8448Z" fill="#FFCE96"/>
<path d="M113.675 59.5648L125.785 61.3148L132.215 79.2848L138.645 61.3148L150.755 59.5648L152.745 54.0748L140.585 55.8248L142.525 50.4748C140.765 50.2648 138.985 50.1048 137.195 49.9948L132.215 63.9648L127.215 49.9448C125.415 50.0348 123.635 50.1948 121.875 50.3948L123.845 55.8348L111.685 54.0848L113.675 59.5748V59.5648Z" fill="#FFCE96"/>
<path d="M185.055 101.765C177.625 98.025 169.065 96.755 165.715 96.605" stroke="#DB811A" stroke-width="9.46" stroke-linecap="round"/>
<path d="M96.9948 96.5747C93.6348 96.7147 85.0748 97.9947 77.6548 101.735" stroke="#DB811A" stroke-width="9.46" stroke-linecap="round"/>
<path d="M132.585 202.185C161.365 202.185 163.395 164.825 163.395 164.825C155.965 172.165 144.515 176.875 131.675 176.875C118.835 176.875 107.965 172.405 100.535 165.385C100.535 165.385 102.475 202.175 131.585 202.175H132.595L132.585 202.185Z" fill="#440E02" stroke="black" stroke-width="3" stroke-linecap="round" stroke-linejoin="round"/>
<path d="M124.985 209.215C127.005 209.625 129.195 209.845 131.565 209.845H132.575C135.045 209.845 137.315 209.595 139.405 209.135" stroke="black" stroke-width="3" stroke-linecap="round" stroke-linejoin="round"/>
<path d="M146.285 192.214C146.285 195.964 139.835 199.004 131.875 199.004C123.915 199.004 117.465 195.964 117.465 192.214C117.465 189.484 120.885 187.094 125.825 186.054C129.505 185.274 131.875 186.504 131.875 186.504C131.875 186.504 134.525 185.384 137.865 186.044C142.855 187.024 146.285 189.474 146.285 192.214Z" fill="#FF5252"/>
<path d="M130.515 187.284C130.515 187.284 122.535 186.394 119.355 191.694C119.355 191.694 119.135 192.694 120.525 192.694C121.915 192.694 122.255 189.854 127.495 188.904C127.495 188.904 130.285 189.354 130.505 187.284H130.515Z" fill="#FF9999"/>
<path d="M133.225 187.284C133.225 187.284 141.205 186.394 144.385 191.694C144.385 191.694 144.605 192.694 143.215 192.694C141.825 192.694 141.485 189.854 136.245 188.904C136.245 188.904 133.455 189.354 133.235 187.284H133.225Z" fill="#FF9999"/>
<path d="M82.5547 374.235C82.5547 374.235 116.425 368.695 117.415 340.415C117.695 332.245 120.715 298.795 84.7447 302.975L81.8247 303.685L82.5647 374.235H82.5547Z" fill="#1062FB"/>
<path d="M113.055 353.255C116.625 346.755 117.465 339.155 117.575 331.815C117.575 330.865 118.965 330.675 119.205 331.595C120.875 337.465 120.825 343.975 118.295 349.605C117.735 350.825 114.635 356.315 113.065 354.495C112.775 354.115 112.815 353.625 113.065 353.255H113.055Z" fill="#103EFF"/>
<path d="M74.6548 374.895L79.6148 374.575C95.3848 373.565 107.355 359.945 106.345 344.175L104.055 315.235C103.045 299.465 89.4248 287.495 73.6548 288.505L68.6948 288.825C52.9248 289.835 40.9548 303.455 41.9648 319.225L44.2548 348.165C45.2648 363.935 58.8848 375.905 74.6548 374.895Z" fill="#D8E1FD"/>
<path d="M75.0147 374.875L76.1547 374.805C92.1247 373.775 104.235 359.995 103.205 344.035L100.915 315.045C99.8847 299.075 86.1047 286.965 70.1447 287.995L69.0047 288.065C53.0347 289.095 40.9247 302.875 41.9547 318.835L44.2447 347.825C45.2747 363.795 59.0547 375.905 75.0147 374.875Z" fill="#A6BDFF"/>
<path d="M72.6248 375.265C87.2648 374.325 98.3748 361.685 97.4348 347.045L94.8348 313.255C93.8948 298.615 81.2548 287.505 66.6148 288.445C51.9748 289.385 40.8648 302.025 41.8048 316.665L44.4048 350.455C45.3448 365.095 57.9848 376.205 72.6248 375.265Z" fill="#D8E1FD"/>
<path d="M182.545 374.235C182.545 374.235 148.675 368.695 147.685 340.415C147.405 332.245 144.385 298.795 180.355 302.975L183.275 303.685L182.535 374.235H182.545Z" fill="#1062FB"/>
<path d="M150.615 354.685C144.935 349.815 144.085 341.485 145.185 334.525C145.385 333.535 145.615 332.555 145.885 331.595C146.005 331.155 146.465 330.895 146.905 331.015C147.255 331.115 147.485 331.415 147.515 331.755C147.625 339.105 148.455 346.745 152.045 353.255C152.725 354.205 151.555 355.385 150.615 354.685Z" fill="#103EFF"/>
<path d="M190.435 374.895L185.475 374.575C169.705 373.565 157.735 359.945 158.745 344.175L161.035 315.235C162.045 299.465 175.665 287.495 191.435 288.505L196.395 288.825C212.165 289.835 224.135 303.455 223.125 319.225L220.835 348.165C219.825 363.935 206.205 375.905 190.435 374.895Z" fill="#D8E1FD"/>
<path d="M190.085 374.875L188.945 374.805C172.975 373.775 160.865 359.995 161.895 344.035L164.185 315.045C165.215 299.075 178.995 286.965 194.955 287.995L196.095 288.065C212.065 289.095 224.175 302.875 223.145 318.835L220.855 347.825C219.825 363.795 206.045 375.905 190.085 374.875Z" fill="#A6BDFF"/>
<path d="M192.475 375.265C177.835 374.325 166.725 361.685 167.665 347.045L170.265 313.255C171.205 298.615 183.845 287.505 198.485 288.445C213.125 289.385 224.235 302.025 223.295 316.665L220.695 350.455C219.755 365.095 207.115 376.205 192.475 375.265Z" fill="#D8E1FD"/>
</svg>
