<svg width="291" height="473" viewBox="0 0 291 473" fill="none" xmlns="http://www.w3.org/2000/svg">
<path d="M109.345 331.859C113.125 374.239 123.155 407.939 123.155 407.939" stroke="#1062FB" stroke-width="56.03" stroke-linecap="round" stroke-linejoin="round"/>
<path d="M92.3853 402.409C95.7453 408.369 111.595 407.909 118.485 407.179C138.575 405.049 147.695 393.169 147.695 393.169L150.405 410.429C151.835 411.319 153.625 412.869 154.565 415.389C156.105 419.549 155.095 441.979 154.895 446.109C154.765 458.169 146.165 468.879 133.855 471.219L130.605 471.839C129.985 471.959 129.365 472.039 128.745 472.109C128.445 472.179 128.135 472.239 127.815 472.309C117.555 474.389 105.825 467.959 103.005 456.779C101.385 450.329 100.465 436.289 100.465 436.289L92.3853 402.409Z" fill="#D8E1FD"/>
<path d="M137.585 426.559C131.415 442.109 108.375 446.649 99.0251 431.579C102.815 432.469 106.135 433.289 109.335 433.629C119.485 434.819 128.295 430.689 137.585 426.559Z" fill="#BCCBFD"/>
<path d="M119.005 409.889C112.365 410.599 99.9752 410.739 93.2252 406.779L91.5952 398.239C94.9552 404.199 110.975 404.499 117.865 403.759C137.425 401.679 147.145 389.359 147.145 389.359L148.325 397.159C146.905 398.899 137.415 407.929 119.005 409.889Z" fill="#103EFF"/>
<path d="M103.005 456.779C102.915 456.409 102.825 456.019 102.735 455.609C105.955 463.469 114.035 466.669 116.005 467.029C125.105 468.689 133.125 467.429 141.305 462.889C149.475 458.359 150.825 448.029 150.825 448.029C150.825 448.029 152.015 423.089 152.035 418.969C152.055 414.849 150.405 410.429 150.405 410.429C151.835 411.319 153.625 412.869 154.565 415.389C156.105 419.549 155.095 441.979 154.895 446.109C154.765 458.169 146.165 468.879 133.855 471.219L130.605 471.839C129.985 471.959 129.365 472.039 128.745 472.109C128.445 472.179 128.135 472.239 127.815 472.309C117.555 474.389 105.825 467.959 103.005 456.779Z" fill="#BCCBFD"/>
<path d="M123.155 368.029C123.155 368.029 130.955 384.149 131.525 389.359C132.095 394.569 132.675 403.629 132.675 403.629L148.325 397.169L141.145 369.439L123.155 368.029Z" fill="#103EFF"/>
<path d="M94.5252 266.399L56.3352 241.099" stroke="#1062FB" stroke-width="44" stroke-miterlimit="10" stroke-linecap="round"/>
<path d="M56.3353 241.099L36.8953 218.279" stroke="#1062FB" stroke-width="44" stroke-miterlimit="10" stroke-linecap="round"/>
<path d="M34.3153 198.929L19.7353 208.499C17.7153 209.829 15.0653 209.769 13.0253 208.339C10.8953 206.849 9.52532 205.779 7.70532 203.929C5.82532 202.009 3.45532 198.769 2.56532 196.669C1.67532 194.569 2.04532 191.909 3.56532 190.299L5.56532 187.759C9.68532 183.409 14.6153 179.929 20.0953 177.509L23.3253 176.079L23.8153 175.959C26.8553 175.209 30.0953 176.519 31.8653 179.209C33.7753 182.109 35.3753 185.199 36.6653 188.419L37.1253 189.589C38.5053 193.049 37.3353 196.949 34.3053 198.929H34.3153Z" fill="#FFAB4B"/>
<path d="M4.38525 196.499C4.38525 196.499 -0.624751 191.299 0.0652487 185.429L1.79525 181.089C2.33525 179.719 3.24525 178.529 4.40525 177.639L5.69525 176.649C7.79525 175.039 10.7452 175.189 12.6752 176.999L16.7552 180.829C18.7352 182.689 18.9352 185.759 17.2052 187.859C15.3852 190.059 12.1252 190.369 9.92525 188.529L9.53525 193.079L4.38525 196.499Z" fill="#FFAB4B"/>
<path d="M9.0353 191.239L7.1653 184.639C6.6753 182.919 6.7753 181.079 7.4353 179.409L9.1653 175.069C9.7053 173.699 10.6153 172.509 11.7753 171.619L13.0653 170.629C15.1653 169.019 18.1153 169.169 20.0453 170.979L24.1253 174.809C26.1053 176.669 26.3053 179.739 24.5753 181.839C22.7553 184.039 19.4953 184.349 17.2953 182.509L9.0253 191.239H9.0353Z" fill="#FFAB4B"/>
<path d="M15.2953 188.229L13.4253 181.629C12.9353 179.909 13.0353 178.069 13.6953 176.399L15.4253 172.059C15.9653 170.689 16.8753 169.499 18.0353 168.609L19.3253 167.619C21.4253 166.009 24.3753 166.159 26.3053 167.969L30.3853 171.799C32.3653 173.659 32.5653 176.729 30.8353 178.829C29.0153 181.029 25.7553 181.339 23.5553 179.499L15.2853 188.229H15.2953Z" fill="#FFAB4B"/>
<path d="M36.8253 196.149L39.5353 187.199C39.9453 185.849 39.7353 184.389 38.9653 183.209L37.9453 181.649C36.7053 179.749 34.2953 178.989 32.1853 179.829L28.4553 181.319C26.9953 181.899 25.7353 182.909 24.8453 184.209L23.0153 186.899C21.8253 188.639 22.0253 190.979 23.4853 192.499C25.1053 194.189 27.7553 194.339 29.5553 192.839L31.6053 191.139L36.8253 196.139V196.149Z" fill="#FFAB4B"/>
<path d="M36.3153 196.289C36.6253 194.239 37.0553 192.219 37.4753 190.199L38.1553 187.189C38.4753 185.889 38.1353 184.649 37.3153 183.659L36.4353 182.409C35.3953 180.929 33.3253 180.529 31.7553 181.339C30.7453 181.759 29.2453 182.369 28.2253 182.759C26.1353 183.499 24.7353 186.019 23.4553 187.709C21.1653 190.939 25.0353 194.819 28.4953 192.939C29.3253 192.439 30.2153 191.829 31.0853 191.289C30.3653 192.059 29.7153 192.799 28.9053 193.549C24.2653 197.179 18.3653 191.229 21.5153 186.409C22.9253 184.109 24.4953 181.399 27.1553 180.359C27.8753 180.059 29.3253 179.469 30.0553 179.199C30.2953 179.129 30.9053 178.859 31.1353 178.779C33.7253 177.699 36.9253 178.739 38.3653 181.129C38.8653 182.009 39.6753 183.099 39.9253 184.089C40.7253 186.199 39.4053 188.669 38.7053 190.589C37.9353 192.499 37.1753 194.419 36.2953 196.299L36.3153 196.289Z" fill="#EA9642"/>
<path d="M0.0551758 185.439C0.785176 182.439 1.22518 178.949 3.81518 176.859L4.79518 176.009C6.28518 174.599 8.59517 173.989 10.6152 174.479C13.3552 175.119 15.2152 177.769 17.2352 179.519C19.7052 181.539 20.2952 185.429 18.3152 187.969C15.8952 191.379 10.4252 190.759 8.67518 187.239C10.8752 189.649 15.1252 189.749 16.7152 186.899C17.7852 184.969 17.1452 182.659 15.4652 181.389L13.5552 179.639C12.0052 178.139 10.3852 176.309 8.00518 176.839C6.93518 176.999 5.91518 177.809 5.00518 178.409C2.46518 180.009 1.68518 183.009 0.0551758 185.429V185.439Z" fill="#EA9642"/>
<path d="M9.16528 175.069C9.70528 173.699 10.6153 172.509 11.7753 171.619L13.0653 170.629C15.1653 169.019 18.1153 169.169 20.0453 170.979L24.1253 174.809C26.1053 176.669 26.3053 179.739 24.5753 181.839C23.0453 183.689 20.5053 184.199 18.4353 183.229" stroke="#EA9642" stroke-width="2.66" stroke-linecap="round" stroke-linejoin="round"/>
<path d="M17.2153 169.329C17.4753 169.069 17.7453 168.829 18.0353 168.609L19.3253 167.619C21.4253 166.009 24.3753 166.159 26.3053 167.969L30.3853 171.799C32.3653 173.659 32.5653 176.729 30.8353 178.829C29.5053 180.439 27.3953 181.039 25.5053 180.519" stroke="#EA9642" stroke-width="2.66" stroke-linecap="round" stroke-linejoin="round"/>
<path d="M11.7354 195.149C16.4354 191.369 24.7154 191.849 28.1154 197.119C22.8254 195.249 17.2754 195.119 11.7354 195.149Z" fill="#EA9642"/>
<path d="M9.14525 185.849C9.14525 185.849 8.83525 188.069 6.38525 190.719" stroke="#EA9642" stroke-width="1.65" stroke-linecap="round" stroke-linejoin="round"/>
<path d="M41.15 193.088L13.7961 211.296C10.5227 213.475 9.63552 217.895 11.8145 221.169L15.1503 226.18C17.3292 229.453 21.7492 230.341 25.0225 228.162L52.3764 209.953C55.6498 207.774 56.537 203.354 54.3581 200.081L51.0223 195.07C48.8433 191.796 44.4234 190.909 41.15 193.088Z" fill="#103EFF"/>
<path d="M110.055 365.319C132.265 364.079 151.265 366.979 174.055 364.609C196.845 362.239 206.385 334.479 201.385 313.679C196.915 290.709 198.085 260.389 195.915 239.329C193.745 218.269 185.285 212.299 167.165 209.359C152.545 206.989 130.625 209.839 115.755 210.199C97.3253 210.649 94.5953 221.249 90.2653 234.979C78.9353 270.909 72.5453 296.359 77.7153 332.719C80.7053 353.749 91.2053 362.249 110.045 365.309L110.055 365.319Z" fill="#1062FB"/>
<path d="M106.845 330.599C115.285 330.379 123.685 331.419 132.125 330.969C128.825 301.549 129.435 282.089 137.025 253.349C128.715 252.079 120.295 252.019 111.955 251.009C105.975 278.049 104.125 303.019 106.835 330.599H106.845Z" fill="#0128FC"/>
<path d="M175.485 358.049C162.905 367.079 150.615 370.099 135.045 369.339C119.465 368.569 105.635 364.649 93.4553 354.539C107.175 356.739 121.675 358.939 135.415 359.629C149.165 360.319 161.935 359.149 175.475 358.049H175.485Z" fill="#103EFF"/>
<path d="M140.035 254.479C125.805 253.809 82.8753 251.599 84.0053 229.979C85.1353 208.359 129.585 204.919 144.705 205.649C159.825 206.379 204.605 212.919 203.625 233.489C202.645 254.059 154.265 255.149 140.035 254.489V254.479Z" fill="#BCCBFD"/>
<path d="M196.345 243.559C179.145 253.459 157.305 256.079 138.685 254.469C118.765 252.749 103.865 252.509 88.3053 240.759C87.4153 244.079 86.3353 247.339 85.2253 250.689C102.595 259.899 117.045 261.719 137.495 262.259C156.265 262.759 178.545 260.939 196.535 252.509C196.615 249.519 196.585 246.519 196.335 243.559H196.345Z" fill="#005CE2"/>
<path d="M236.825 260.809L219.805 280.549" stroke="#1062FB" stroke-width="41.61" stroke-miterlimit="10" stroke-linecap="round"/>
<path d="M217.665 282.099L197.415 270.229" stroke="#1062FB" stroke-width="41.61" stroke-miterlimit="10" stroke-linecap="round"/>
<path d="M262.415 254.529L268.585 247.259C272.455 242.699 274.845 237.089 275.455 231.139L276.805 218.019C277.115 215.009 275.935 212.039 273.645 210.059C272.055 208.679 270.045 207.889 267.935 207.809L257.365 207.399C254.305 207.279 251.375 208.689 249.555 211.159L247.445 214.019L245.825 213.799C242.695 213.369 239.605 214.849 237.975 217.569C236.795 219.549 236.535 221.949 237.275 224.139L240.725 234.339L238.505 240.489L256.685 259.119L259.325 257.309C260.465 256.529 261.505 255.589 262.405 254.529H262.415Z" fill="#FFAB4B"/>
<path d="M266.425 217.849C263.105 218.599 259.825 218.829 256.475 218.929C254.335 218.959 252.335 220.209 251.395 222.129C250.925 223.129 250.675 224.269 250.275 225.319C249.355 227.349 249.935 229.579 251.765 231.029C249.405 230.759 247.595 228.139 247.815 225.749C247.955 224.489 248.155 223.289 248.415 222.039C249.105 218.769 252.165 216.209 255.505 216.109C259.215 216.239 262.815 216.839 266.425 217.849Z" fill="#EA9642"/>
<path d="M265.885 227.479C264.075 227.569 260.295 227.139 259.465 227.009C255.195 227.039 254.575 229.539 253.745 233.139C253.305 234.449 253.905 235.489 254.925 236.539C257.175 238.729 260.475 239.339 263.585 238.419C259.285 241.559 250.645 239.039 251.145 232.829C251.225 227.719 253.955 223.569 259.535 224.709C261.735 225.379 263.855 226.389 265.875 227.479H265.885Z" fill="#EA9642"/>
<path d="M270.545 208.399C266.265 209.189 262.025 209.389 257.725 209.439H255.615C252.655 209.399 249.985 211.599 249.225 214.429L248.545 216.379C247.985 218.239 248.725 220.159 250.395 221.409C248.075 221.059 246.295 218.459 246.565 216.039C246.695 214.899 246.865 213.799 247.115 212.709C248.065 208.959 251.795 206.239 255.655 206.419L257.805 206.539C262.095 206.859 266.315 207.329 270.535 208.389L270.545 208.399Z" fill="#EA9642"/>
<path d="M238.705 225.479C240.965 225.899 242.555 227.299 244.435 228.339C246.165 229.079 247.815 228.929 249.815 228.199C249.325 231.009 245.705 232.369 243.185 231.129C240.935 229.949 239.645 227.829 238.705 225.479Z" fill="#EA9642"/>
<path d="M246.295 235.239C248.465 238.699 250.565 241.869 253.755 244.289C255.755 245.729 257.725 246.539 260.145 247.589C252.825 250.059 245.175 242.599 246.295 235.249V235.239Z" fill="#EA9642"/>
<path d="M220.999 253.801L247.941 274.866C251.2 277.414 255.908 276.838 258.455 273.579L262.933 267.852C265.481 264.593 264.905 259.886 261.646 257.338L234.703 236.273C231.445 233.725 226.737 234.301 224.189 237.56L219.712 243.287C217.164 246.546 217.74 251.253 220.999 253.801Z" fill="#103EFF"/>
<path d="M210.515 276.869C203.725 271.009 206.395 258.769 214.045 254.879C214.175 254.789 214.365 254.899 214.265 255.059C213.705 255.829 213.185 256.639 212.715 257.479C209.625 262.809 208.185 269.459 210.295 275.389L210.775 276.749C210.825 276.909 210.615 276.999 210.515 276.869Z" fill="#103EFF"/>
<path d="M176.755 269.969C177.825 277.429 182.955 283.079 189.185 286.829C193.055 288.919 196.735 291.579 200.005 294.519C200.855 295.269 201.665 296.089 202.455 296.949C202.555 297.049 202.425 297.249 202.285 297.159L190.805 290.739C188.855 289.859 186.755 288.699 184.955 287.379C179.495 283.459 175.455 276.809 176.465 269.909C176.525 269.739 176.745 269.759 176.745 269.969H176.755Z" fill="#103EFF"/>
<path d="M78.0652 281.789C78.0652 281.789 80.1852 267.519 83.9752 255.989L71.3552 277.489L78.0552 281.789H78.0652Z" fill="#103EFF"/>
<path d="M73.1353 314.679C73.2553 311.779 75.8653 310.029 78.2953 310.339C98.1853 312.839 115.945 315.539 136.215 315.359C157.015 315.179 178.155 312.749 199.015 309.419C201.525 309.019 204.265 310.789 204.755 313.539C205.395 317.139 205.975 320.859 206.485 324.539C206.825 326.979 205.125 329.349 202.805 329.769C181.365 333.659 159.675 336.469 138.125 336.829C117.135 337.179 98.2053 333.959 77.5053 331.329C75.2053 331.039 72.9453 328.679 72.9453 326.119C72.9453 322.249 72.9753 318.479 73.1353 314.679Z" fill="#BCCBFD"/>
<path d="M89.7354 316.299C89.9054 312.799 92.2754 311.059 95.3854 311.189C103.095 311.509 110.865 312.159 118.525 312.509C126.835 312.889 134.955 312.859 143.265 313.129C146.365 313.229 148.655 315.139 148.975 318.619C149.405 323.309 149.955 330.059 150.175 334.699C150.335 338.149 148.505 340.209 145.395 340.369C136.685 340.819 127.875 340.369 119.155 339.939C111.085 339.539 102.975 339.129 94.9354 338.239C91.8354 337.889 89.7554 335.829 89.6454 332.339C89.4954 327.649 89.5154 321.019 89.7454 316.289L89.7354 316.299Z" fill="#D8E1FD"/>
<path d="M134.285 326.679C134.385 329.359 136.505 331.539 139.195 331.619C141.885 331.709 143.755 329.679 143.665 327.029C143.575 324.369 141.505 322.209 138.815 322.099C136.135 321.999 134.185 323.989 134.285 326.669V326.679Z" fill="#11AD00"/>
<path d="M121.355 327.099C121.435 329.809 123.575 331.949 126.285 332.079C128.995 332.209 130.975 330.239 130.875 327.539C130.775 324.839 128.675 322.679 125.985 322.559C123.285 322.439 121.275 324.379 121.365 327.099H121.355Z" fill="#11AD00"/>
<path d="M108.345 326.499C108.405 329.199 110.535 331.319 113.225 331.449C115.915 331.579 117.945 329.639 117.875 326.939C117.805 324.239 115.695 322.099 113.005 321.979C110.315 321.859 108.275 323.799 108.335 326.509L108.345 326.499Z" fill="#E8A600"/>
<path d="M95.3854 324.989C95.4654 327.669 97.5754 329.769 100.245 329.869C102.915 329.969 104.925 328.029 104.865 325.339C104.805 322.649 102.685 320.539 100.005 320.439C97.3254 320.339 95.3054 322.309 95.3854 324.989Z" fill="#FF3B00"/>
<path d="M154.905 335.739L160.835 363.599" stroke="#1062FB" stroke-width="56" stroke-linecap="round" stroke-linejoin="round"/>
<path d="M130.795 357.329C134.155 363.289 150.005 362.829 156.895 362.099C176.985 359.969 186.105 348.089 186.105 348.089L188.815 365.349C190.245 366.239 192.035 367.789 192.975 370.309C194.515 374.469 193.505 396.899 193.305 401.029C193.175 413.089 184.575 423.799 172.265 426.139L169.015 426.759C168.395 426.879 167.775 426.959 167.155 427.029C166.855 427.099 166.545 427.159 166.225 427.229C155.965 429.309 144.235 422.879 141.415 411.699C139.795 405.249 138.875 391.209 138.875 391.209L130.795 357.329Z" fill="#D8E1FD"/>
<path d="M175.985 381.479C169.815 397.029 146.775 401.569 137.425 386.499C141.215 387.389 144.535 388.209 147.735 388.549C157.885 389.739 166.695 385.609 175.985 381.479Z" fill="#BCCBFD"/>
<path d="M157.415 364.809C150.775 365.519 138.385 365.659 131.635 361.699L130.005 353.159C133.365 359.119 149.385 359.419 156.275 358.679C175.835 356.599 185.555 344.279 185.555 344.279L186.735 352.079C185.315 353.819 175.825 362.849 157.415 364.809Z" fill="#103EFF"/>
<path d="M141.415 411.699C141.325 411.329 141.235 410.939 141.145 410.529C144.365 418.389 152.445 421.589 154.415 421.949C163.515 423.609 171.535 422.349 179.715 417.809C187.885 413.279 189.235 402.949 189.235 402.949C189.235 402.949 190.425 378.009 190.445 373.889C190.465 369.769 188.815 365.349 188.815 365.349C190.245 366.239 192.035 367.789 192.975 370.309C194.515 374.469 193.505 396.899 193.305 401.029C193.175 413.089 184.575 423.799 172.265 426.139L169.015 426.759C168.395 426.879 167.775 426.959 167.155 427.029C166.855 427.099 166.545 427.159 166.225 427.229C155.965 429.309 144.235 422.879 141.415 411.699Z" fill="#BCCBFD"/>
<path d="M149.125 309.369C149.125 309.369 184.555 298.149 193.575 334.509L172.985 340.559L149.125 309.369Z" fill="#1062FB"/>
<path d="M179.305 327.229C186.795 331.039 188.935 342.399 185.695 349.659L185.665 349.709C185.605 349.829 185.405 349.799 185.405 349.659C185.095 343.819 184.205 337.909 181.995 332.459C181.205 330.679 180.275 328.959 179.085 327.409C178.995 327.309 179.125 327.139 179.245 327.199L179.295 327.219L179.305 327.229Z" fill="#103EFF"/>
<path d="M194.755 340.579C190.375 327.439 182.765 315.109 169.175 311.009C162.845 309.019 155.935 308.769 149.435 310.179C142.825 311.579 136.595 314.929 131.685 320.429C131.625 320.529 131.475 320.549 131.385 320.469C131.315 320.409 131.295 320.299 131.345 320.219C135.155 313.899 141.535 309.379 148.575 307.309C162.675 302.919 179.475 307.409 187.735 320.089C191.865 326.159 194.335 333.279 195.145 340.549C195.155 340.659 195.075 340.749 194.965 340.769C194.845 340.769 194.765 340.699 194.745 340.589L194.755 340.579Z" fill="#103EFF"/>
<path d="M73.5952 1.12881C90.7052 -9.55119 105.075 58.9588 126.355 73.8288L115.385 135.009L72.2152 127.269C65.9152 126.139 55.9452 116.999 55.1852 99.0788C54.2452 76.6588 52.2052 14.4988 73.5952 1.12881Z" fill="#FFAB4B"/>
<path fill-rule="evenodd" clip-rule="evenodd" d="M54.7651 68.1088C58.0351 62.2088 67.0251 47.1888 78.1151 39.2788C86.2251 33.4788 94.1851 31.0588 99.4451 29.9788C90.6751 11.3988 82.5051 -4.43122 73.5951 1.12878C59.0951 10.2088 55.3351 41.7788 54.7651 68.1088Z" fill="#1062FB"/>
<path d="M70.8352 12.9888C82.2852 4.6588 85.0552 66.9488 106.845 79.4688L98.3552 126.819L74.2652 122.499C66.3452 120.169 61.9952 109.829 61.2852 98.5088C60.2552 81.5088 58.4152 25.1688 70.8252 12.9888H70.8352Z" fill="#FFCE96"/>
<path d="M282.195 38.5287C264.465 21.6087 217.725 79.1587 184.095 84.1787L173.125 145.359L232.115 155.939C240.725 157.479 257.375 153.119 265.725 136.829C276.155 116.449 304.355 59.7087 282.195 38.5287Z" fill="#FFAB4B"/>
<path fill-rule="evenodd" clip-rule="evenodd" d="M279.005 108.319C277.195 101.509 271.755 83.8987 260.665 72.0187C252.565 63.3087 243.275 57.7987 236.915 54.6387C255.885 41.0287 272.955 29.7187 282.185 38.5387C297.195 52.9087 289.085 83.6987 278.995 108.319H279.005Z" fill="#1062FB"/>
<path d="M280.885 50.6487C269.515 38.2287 229.605 92.7287 206.995 97.4187L198.505 144.769L231.425 150.669C242.615 151.759 254.555 145.489 260.135 135.299C268.455 119.969 295.115 66.1687 280.885 50.6487Z" fill="#FFCE96"/>
<path d="M136.735 222.359C182.555 230.579 225.975 202.279 233.705 159.159C241.435 116.039 210.555 74.4188 164.735 66.1988C118.915 57.9788 75.4954 86.2788 67.7654 129.399C60.0354 172.519 90.9155 214.139 136.735 222.359Z" fill="#FFAB4B"/>
<path d="M240.865 207.159C240.345 205.079 239.685 202.949 238.875 200.799C239.905 200.459 240.855 199.819 241.605 198.919C242.985 197.269 243.415 195.009 242.715 192.989C238.265 180.629 229.775 174.209 225.875 170.399C224.035 168.629 221.415 168.079 218.965 168.999C218.355 169.249 217.805 169.579 217.315 169.959C215.075 168.599 212.585 167.329 209.765 166.099C194.835 159.609 173.435 155.769 150.775 151.709L143.795 150.459C121.165 146.399 99.7854 142.569 83.4654 143.459C80.4953 143.639 77.6553 143.999 74.9754 144.519C74.6254 143.919 74.1853 143.379 73.6753 142.919C71.7853 141.239 69.1353 140.839 66.7353 141.879C61.8153 144.059 56.2054 149.719 47.6453 159.879C46.3154 161.489 45.9353 163.689 46.6453 165.799C47.0353 166.889 47.6953 167.819 48.5353 168.489C47.3053 169.909 45.8853 171.689 44.4753 173.789C42.9653 176.019 43.0453 178.909 44.6753 181.159C45.8353 182.749 47.6353 183.779 49.5353 184.039C49.4753 184.749 49.5353 185.479 49.7653 186.179L49.7953 186.279C50.4653 188.139 52.0153 189.499 54.0253 189.939C54.2253 189.979 54.4453 190.029 54.6953 190.099C57.7153 199.469 74.9153 232.099 129.145 241.819C153.815 246.239 179.365 245.399 197.725 238.829C209.375 234.649 219.705 226.779 225.835 218.959C225.955 218.969 226.085 218.989 226.205 218.999H226.365C228.355 219.289 230.335 218.519 231.535 216.999C232.035 216.399 232.375 215.719 232.575 215.009C234.435 215.379 236.445 215.059 238.095 214.019C240.405 212.479 241.485 209.799 240.845 207.169L240.865 207.159Z" fill="#FFAB4B"/>
<path d="M194.355 180.029C179.145 182.269 162.415 176.159 158.965 168.209C154.175 157.179 145.005 146.949 132.725 144.579C120.445 142.209 110.905 147.839 101.755 156.069C95.2153 161.949 91.3853 164.189 84.7853 161.329C77.3253 157.839 62.5653 147.029 60.6353 168.109C58.1353 195.449 79.6553 216.359 98.7353 227.789C106.695 232.559 120.825 238.939 142.865 240.319C172.065 242.149 203.025 232.069 217.895 207.889C219.905 204.619 221.575 201.059 222.855 197.169C227.995 179.559 210.815 178.669 194.335 180.009L194.355 180.029Z" fill="white"/>
<path d="M124.915 178.449C133.965 180.069 142.285 175.909 143.495 169.139C144.705 162.369 138.355 155.579 129.305 153.959C120.255 152.339 111.935 156.499 110.725 163.269C109.515 170.029 115.865 176.829 124.915 178.449Z" fill="black"/>
<path d="M127.786 163.449C132.576 164.309 136.776 163.249 137.166 161.089C137.556 158.929 133.986 156.479 129.196 155.619C124.406 154.759 120.206 155.819 119.816 157.979C119.426 160.139 122.996 162.589 127.786 163.449Z" fill="#3C3835"/>
<path d="M173.095 68.1088L164.715 80.8988L153.785 80.7188L139.725 107.319L135.775 77.4888L125.465 73.8588L125.025 68.1088C121.565 69.0888 118.205 70.2788 114.935 71.6588L115.675 75.8488C116.205 79.8388 118.665 83.0688 122.095 84.2588L126.845 85.9288L131.015 121.419C131.795 128.049 139.765 129.479 142.805 123.529L159.045 91.6988L164.085 91.7888C167.715 91.8588 171.145 89.6888 173.025 86.1388L182.695 71.4088C179.585 70.1488 176.395 69.0288 173.095 68.1088Z" fill="#FFCE96"/>
<path d="M153.935 70.3687L156.725 65.1387C155.015 64.9887 153.305 64.8787 151.605 64.8287L145.155 77.0587L143.565 64.9387C142.005 65.0287 140.455 65.1787 138.925 65.3487L139.245 67.7287L134.335 66.0087C132.635 66.2987 130.955 66.6387 129.285 67.0187L129.665 69.8087L139.975 73.4387L142.445 92.1387L151.265 75.4587L162.195 75.6387L164.905 70.5487L153.935 70.3587V70.3687Z" fill="#FFCE96"/>
<path d="M121.465 213.659C145.215 217.699 152.135 187.149 152.135 187.149C144.975 192.169 134.865 194.449 124.265 192.649C113.935 190.889 105.325 185.639 100.175 178.799C100.175 178.799 96.6154 209.439 120.635 213.519L121.465 213.659Z" fill="#440E02" stroke="black" stroke-width="2.51" stroke-linecap="round" stroke-linejoin="round"/>
<path d="M114.205 218.399C115.815 219.019 117.595 219.509 119.545 219.849L120.375 219.989C122.415 220.339 124.325 220.449 126.105 220.369" stroke="black" stroke-width="2.51" stroke-linecap="round" stroke-linejoin="round"/>
<path d="M134.175 207.349C133.645 210.439 127.895 212.049 121.335 210.929C114.765 209.809 109.865 206.399 110.395 203.309C110.775 201.059 113.935 199.569 118.155 199.399C121.305 199.269 123.085 200.619 123.085 200.619C123.085 200.619 125.425 200.069 128.095 201.079C132.075 202.589 134.565 205.089 134.175 207.359V207.349Z" fill="#FF5252"/>
<path d="M121.846 201.069C121.846 201.069 115.386 199.209 112.026 203.139C112.026 203.139 111.706 203.939 112.856 204.129C114.006 204.319 114.686 202.019 119.146 201.979C119.146 201.979 121.386 202.739 121.856 201.069H121.846Z" fill="#FF9999"/>
<path d="M124.085 201.449C124.085 201.449 130.795 201.829 132.675 206.649C132.675 206.649 132.715 207.509 131.565 207.309C130.415 207.109 130.535 204.719 126.345 203.199C126.345 203.199 123.985 203.179 124.085 201.439V201.449Z" fill="#FF9999"/>
<path d="M193.885 136.729C188.705 130.229 181.465 125.489 178.475 123.959" stroke="#DB811A" stroke-width="9.46" stroke-linecap="round"/>
<path d="M106.765 114.529C103.405 114.399 94.7754 114.969 87.0654 118.089" stroke="#DB811A" stroke-width="9.46" stroke-linecap="round"/>
<path d="M111.295 141.289C111.295 141.289 96.5354 133.189 80.2654 141.169" stroke="black" stroke-width="5" stroke-linecap="round"/>
<path d="M155.215 149.489C155.215 149.489 176.015 147.979 188.945 165.219" stroke="black" stroke-width="5" stroke-linecap="round"/>
</svg>
