<svg width="270" height="297" viewBox="0 0 270 297" fill="none" xmlns="http://www.w3.org/2000/svg">
<mask id="mask0_1974_7516" style="mask-type:luminance" maskUnits="userSpaceOnUse" x="0" y="94" width="270" height="195">
<path d="M269.37 94.7148H0V288.835H269.37V94.7148Z" fill="white"/>
</mask>
<g mask="url(#mask0_1974_7516)">
<path d="M79.5599 253.395L47.6899 283.975" stroke="#1062FB" stroke-width="44" stroke-miterlimit="10" stroke-linecap="round"/>
<path d="M47.6899 283.975H56.4499" stroke="#1062FB" stroke-width="44" stroke-miterlimit="10" stroke-linecap="round"/>
<path d="M188.56 253.395L220.44 283.975" stroke="#1062FB" stroke-width="44" stroke-miterlimit="10" stroke-linecap="round"/>
<path d="M220.44 283.975H211.68" stroke="#1062FB" stroke-width="44" stroke-miterlimit="10" stroke-linecap="round"/>
<path d="M171.04 357.135H95.9196C78.2896 357.135 64.3496 342.275 65.5496 324.775L77.1696 226.355C78.2596 210.455 91.5296 201.745 107.54 201.745H159.43C175.44 201.745 188.71 210.455 189.8 226.355L201.42 324.775C202.62 342.285 188.67 357.135 171.05 357.135H171.04Z" fill="#1062FB"/>
<path d="M146.37 238.085H122V314.155H146.37V238.085Z" fill="#0128FC"/>
<path d="M73.9694 300.755L68.3394 299.645L73.8794 254.305L74.8094 256.465C75.4294 257.915 75.7094 259.495 75.6194 261.065L73.9694 300.745V300.755Z" fill="#103EFF"/>
<path d="M193.01 300.755L198.64 299.645L193.1 254.305L192.17 256.465C191.55 257.915 191.27 259.495 191.36 261.065L193.01 300.745V300.755Z" fill="#103EFF"/>
<path d="M76.8594 228.915L75.8994 237.035C89.3994 245.145 109.779 249.375 133.609 249.375C157.439 249.375 177.569 244.695 190.989 236.465L190.119 229.105C177.999 237.875 157.709 242.845 133.609 242.845C109.509 242.845 89.0994 237.655 76.8594 228.915Z" fill="#103EFF"/>
<path d="M133.61 242.845C167.44 242.845 194.87 232.585 194.87 219.925C194.87 207.265 167.44 197.005 133.61 197.005C99.7796 197.005 72.3496 207.265 72.3496 219.925C72.3496 232.585 99.7796 242.845 133.61 242.845Z" fill="#BCCBFD"/>
<path d="M65.0098 265.055H51.0298C40.5474 265.055 32.0498 273.552 32.0498 284.035V285.255C32.0498 295.737 40.5474 304.235 51.0298 304.235H65.0098C75.4922 304.235 83.9898 295.737 83.9898 285.255V284.035C83.9898 273.552 75.4922 265.055 65.0098 265.055Z" fill="#0128FC"/>
<path d="M203.11 304.235H217.09C227.572 304.235 236.07 295.738 236.07 285.255V284.035C236.07 273.553 227.572 265.055 217.09 265.055H203.11C192.627 265.055 184.13 273.553 184.13 284.035V285.255C184.13 295.738 192.627 304.235 203.11 304.235Z" fill="#0128FC"/>
</g>
<path d="M99.1698 288.835C98.7598 285.625 96.1498 283.035 92.7998 282.755L84.0998 282.045C83.7998 281.695 83.4698 281.355 83.0998 281.005C73.1798 271.735 57.4998 272.235 50.4398 274.155C45.1798 275.585 34.1798 281.315 36.7198 288.825H99.1698V288.835Z" fill="#EA9642"/>
<path d="M73.7195 287.095L72.0195 278.325" stroke="#FFAB4B" stroke-width="13.07" stroke-miterlimit="10" stroke-linecap="round"/>
<path d="M59.4399 289.965L60.0199 276.205" stroke="#FFAB4B" stroke-width="13.07" stroke-miterlimit="10" stroke-linecap="round"/>
<path d="M45.9497 289.945L46.9697 278.865" stroke="#FFAB4B" stroke-width="11.88" stroke-miterlimit="10" stroke-linecap="round"/>
<path d="M168.96 288.835C169.37 285.625 171.98 283.035 175.33 282.755L184.03 282.045C184.33 281.695 184.66 281.355 185.03 281.005C194.95 271.735 210.63 272.235 217.69 274.155C222.95 275.585 233.95 281.315 231.41 288.825H168.96V288.835Z" fill="#EA9642"/>
<path d="M194.41 287.095L196.1 278.325" stroke="#FFAB4B" stroke-width="13.07" stroke-miterlimit="10" stroke-linecap="round"/>
<path d="M208.69 289.965L208.11 276.205" stroke="#FFAB4B" stroke-width="13.07" stroke-miterlimit="10" stroke-linecap="round"/>
<path d="M222.18 289.945L221.15 278.865" stroke="#FFAB4B" stroke-width="11.88" stroke-miterlimit="10" stroke-linecap="round"/>
<path d="M22.3 1.85526C42.73 -11.6747 78.59 53.2253 110.8 64.1053V126.255H50.87C42.12 126.255 26.51 119.015 21.16 101.515C14.49 79.6253 -3.25 18.7953 22.3 1.85526Z" fill="#FFAB4B"/>
<path fill-rule="evenodd" clip-rule="evenodd" d="M13.1199 71.1052C16.0999 64.7152 24.5699 48.3552 37.5799 38.6052C47.0899 31.4652 57.2099 27.6752 64.0199 25.6952C47.7499 8.95518 32.9399 -5.18482 22.2999 1.85518C4.97988 13.3552 7.53988 45.0952 13.1199 71.1052Z" fill="#1062FB"/>
<path d="M21.4498 14.0151C34.8398 3.79508 64.4898 64.4851 85.9198 73.0951V121.205H52.4798C41.2698 120.305 30.6298 112.025 26.9398 101.005C21.4498 84.4451 4.69979 26.7851 21.4498 14.0151Z" fill="#FFCE96"/>
<path d="M247.13 1.85526C226.7 -11.6747 190.84 53.2253 158.63 64.1053V126.255H218.56C227.31 126.255 242.92 119.015 248.27 101.515C254.94 79.6153 272.68 18.7853 247.13 1.85526Z" fill="#FFAB4B"/>
<path fill-rule="evenodd" clip-rule="evenodd" d="M256.31 71.1049C253.33 64.7149 244.86 48.3549 231.85 38.6049C222.34 31.4649 212.22 27.6749 205.41 25.6949C221.68 8.95491 236.49 -5.19509 247.13 1.85491C264.44 13.3449 261.89 45.0849 256.31 71.1049Z" fill="#1062FB"/>
<path d="M247.98 14.0151C234.59 3.79508 204.94 64.4851 183.51 73.0951V121.205H216.95C228.16 120.305 238.8 112.025 242.49 101.005C247.98 84.4451 264.72 26.7851 247.98 14.0151Z" fill="#FFCE96"/>
<path d="M134.4 208.474C180.95 208.474 218.69 172.954 218.69 129.144C218.69 85.3345 180.95 49.8145 134.4 49.8145C87.8499 49.8145 50.1099 85.3345 50.1099 129.144C50.1099 172.954 87.8499 208.474 134.4 208.474Z" fill="#FFAB4B"/>
<path d="M235.21 177.135C234.33 175.185 233.3 173.205 232.13 171.225C233.08 170.705 233.9 169.915 234.48 168.895C235.55 167.035 235.57 164.725 234.52 162.865C227.96 151.485 219.46 144.665 214.96 141.595C212.83 140.175 210.17 140.095 207.92 141.435C207.37 141.795 206.88 142.205 206.47 142.675C204.02 141.735 201.35 140.925 198.36 140.205C182.51 136.445 160.78 136.445 137.76 136.445H130.66C107.67 136.445 85.9498 136.445 70.0398 140.205C67.1498 140.905 64.4098 141.765 61.8698 142.745C61.4198 142.215 60.8898 141.755 60.2998 141.395C58.1498 140.075 55.4698 140.145 53.2898 141.595C48.8298 144.605 40.3598 151.375 33.7298 162.875C32.7098 164.695 32.7198 166.925 33.7898 168.885C34.3698 169.895 35.1798 170.685 36.1198 171.205C35.1598 172.815 34.0798 174.825 33.0598 177.135C31.9698 179.595 32.5498 182.435 34.5598 184.355C35.9798 185.715 37.9398 186.415 39.8498 186.325C39.9098 187.035 40.1098 187.735 40.4598 188.395L40.5098 188.485C41.4998 190.195 43.2598 191.255 45.3198 191.335C45.5298 191.335 45.7498 191.345 46.0098 191.375C50.6398 200.065 58.6098 207.835 69.1398 213.895C85.9698 223.595 109.09 228.935 134.24 228.935C159.39 228.935 182.43 223.595 199.34 213.895C210.07 207.725 217.85 200.155 222.5 191.375C222.62 191.375 222.75 191.355 222.87 191.345H223.03C225.04 191.255 226.85 190.145 227.77 188.435C228.15 187.755 228.38 187.025 228.44 186.295C230.34 186.335 232.26 185.665 233.69 184.345C235.7 182.425 236.29 179.595 235.19 177.125L235.21 177.135Z" fill="#FFAB4B"/>
<path d="M185.68 154.315C177.4 156.015 168.89 152.425 164.3 145.095C157.91 134.925 146.8 128.165 134.17 128.165C121.54 128.165 110.42 134.925 104.04 145.095C99.5001 152.375 90.9401 155.975 82.6601 154.315C63.6001 150.435 51.3501 149.825 51.3501 168.455C51.3501 200.905 96.8501 225.125 134.13 225.125C171.41 225.125 216.91 200.905 216.91 168.455C217 149.815 204.75 150.435 185.69 154.315H185.68Z" fill="white"/>
<path d="M152 130.525C152 119.175 161.18 109.995 172.53 109.995C183.88 109.995 193.06 119.175 193.06 130.525V139.515C193.06 140.935 192.07 142.115 190.69 142.405L156.3 149.265C154.08 149.695 152.04 148.035 152.04 145.765V130.535H151.99L152 130.525Z" fill="white"/>
<path d="M116.29 130.525C116.29 119.175 107.11 109.995 95.76 109.995C84.41 109.995 75.23 119.175 75.23 130.525V139.515C75.23 140.935 76.22 142.115 77.6 142.405L111.99 149.265C114.21 149.695 116.25 148.035 116.25 145.765V130.535H116.3L116.29 130.525Z" fill="white"/>
<path d="M169.78 142.445C177.17 142.445 183.17 136.685 183.17 129.575C183.17 122.465 177.18 116.705 169.78 116.705C162.38 116.705 156.39 122.465 156.39 129.575C156.39 136.685 162.38 142.445 169.78 142.445Z" fill="black"/>
<path d="M176.45 123.375C178.04 123.375 179.34 121.875 179.34 120.015C179.34 118.155 178.05 116.655 176.45 116.655C174.85 116.655 173.56 118.155 173.56 120.015C173.56 121.875 174.85 123.375 176.45 123.375Z" fill="white"/>
<path d="M98.4999 142.445C105.89 142.445 111.89 136.685 111.89 129.575C111.89 122.465 105.9 116.705 98.4999 116.705C91.0999 116.705 85.1099 122.465 85.1099 129.575C85.1099 136.685 91.0999 142.445 98.4999 142.445Z" fill="black"/>
<path d="M106.16 123.375C107.75 123.375 109.05 121.875 109.05 120.015C109.05 118.155 107.76 116.655 106.16 116.655C104.56 116.655 103.27 118.155 103.27 120.015C103.27 121.875 104.56 123.375 106.16 123.375Z" fill="white"/>
<path d="M134.12 162.685C143.84 162.685 151.72 157.115 151.72 150.245C151.72 143.375 143.84 137.805 134.12 137.805C124.4 137.805 116.52 143.375 116.52 150.245C116.52 157.115 124.4 162.685 134.12 162.685Z" fill="black"/>
<path d="M134.31 147.405C139.46 147.405 143.63 145.625 143.63 143.435C143.63 141.245 139.46 139.465 134.31 139.465C129.16 139.465 124.99 141.245 124.99 143.435C124.99 145.625 129.16 147.405 134.31 147.405Z" fill="#3C3835"/>
<path d="M160.91 53.8457L157.15 64.2957L145.04 66.0457L134.78 94.7057L124.52 66.0457L112.41 64.2957L108.57 53.6357C105.01 54.7157 101.56 55.9957 98.2202 57.4957L102 67.9957C103.37 71.8257 106.73 74.5657 110.75 75.1357L116.33 75.9357L127.97 110.136C130.15 116.526 139.23 116.526 141.4 110.136L153.04 75.9357L158.62 75.1357C162.64 74.5657 166 71.8257 167.37 67.9957L171.07 57.7157C167.8 56.2257 164.4 54.9457 160.91 53.8557V53.8457Z" fill="#FFCE96"/>
<path d="M116.24 59.5653L128.35 61.3153L134.78 79.2853L141.21 61.3153L153.32 59.5653L155.31 54.0753L143.15 55.8253L145.09 50.4753C143.33 50.2653 141.55 50.1053 139.76 49.9953L134.78 63.9653L129.78 49.9453C127.98 50.0353 126.2 50.1953 124.44 50.3953L126.41 55.8353L114.25 54.0853L116.24 59.5753V59.5653Z" fill="#FFCE96"/>
<path d="M187.62 101.764C180.19 98.0245 171.63 96.7545 168.28 96.6045" stroke="#DB811A" stroke-width="9.46" stroke-linecap="round"/>
<path d="M99.5602 96.5752C96.2002 96.7152 87.6402 97.9952 80.2202 101.735" stroke="#DB811A" stroke-width="9.46" stroke-linecap="round"/>
<path d="M158.63 167.854C152.87 175.084 144 179.714 134.04 179.714C124.08 179.714 115.66 175.314 109.9 168.404" stroke="black" stroke-width="3" stroke-linecap="round" stroke-linejoin="round"/>
</svg>
