<svg width="321" height="457" viewBox="0 0 321 457" fill="none" xmlns="http://www.w3.org/2000/svg">
<path d="M267.979 218.914L246.379 245.174" stroke="#1062FB" stroke-width="44" stroke-miterlimit="10" stroke-linecap="round"/>
<path d="M246.38 245.174L216.979 262.254" stroke="#1062FB" stroke-width="44" stroke-miterlimit="10" stroke-linecap="round"/>
<path d="M227.19 281.584L222.25 260.544L233.62 277.844L227.19 281.584Z" fill="#103EFF"/>
<path d="M273.139 194.284L289.659 204.914C291.949 206.394 294.909 206.334 297.149 204.784C299.489 203.154 300.999 201.984 302.969 199.954C305.019 197.844 307.579 194.294 308.519 191.984C309.459 189.674 308.979 186.744 307.239 184.954L304.949 182.144C300.239 177.324 294.639 173.454 288.469 170.754L284.819 169.154L284.269 169.014C280.849 168.174 277.279 169.594 275.369 172.554C273.319 175.744 271.599 179.134 270.249 182.684L269.759 183.964C268.309 187.774 269.719 192.074 273.149 194.274L273.139 194.284Z" fill="#FFAB4B"/>
<path d="M292.19 155.504L284.64 173.324" stroke="#FFAB4B" stroke-width="11.59" stroke-miterlimit="10" stroke-linecap="round"/>
<path d="M307.35 160.014L296.29 177.194" stroke="#FFAB4B" stroke-width="11.59" stroke-miterlimit="10" stroke-linecap="round"/>
<path d="M315.64 174.323L304.77 185.273" stroke="#FFAB4B" stroke-width="10.14" stroke-miterlimit="10" stroke-linecap="round"/>
<path d="M268.379 168.994L272.399 176.564" stroke="#FFAB4B" stroke-width="11.59" stroke-miterlimit="10" stroke-linecap="round"/>
<path d="M272.399 176.563L275.099 181.663" stroke="#FFAB4B" stroke-width="11.59" stroke-miterlimit="10" stroke-linecap="round"/>
<path d="M306.329 185.334C300.739 179.064 294.009 174.284 286.399 170.844C285.319 170.304 284.179 169.894 283.069 169.284C292.999 169.044 303.409 175.644 306.329 185.334Z" fill="#EA9642"/>
<path d="M285.349 197.574C288.309 191.434 288.959 185.144 284.099 179.924C282.709 178.264 281.009 176.784 279.279 175.174C290.369 177.754 294.679 190.074 285.349 197.574Z" fill="#EA9642"/>
<path d="M255.061 207.194L285.388 226.888C289.056 229.27 293.961 228.228 296.343 224.559L300.526 218.118C302.908 214.45 301.866 209.545 298.197 207.162L267.871 187.468C264.203 185.086 259.298 186.129 256.915 189.797L252.732 196.238C250.35 199.906 251.393 204.812 255.061 207.194Z" fill="#103EFF"/>
<path d="M101.509 273.454L72.2192 290.734" stroke="#1062FB" stroke-width="42" stroke-miterlimit="10" stroke-linecap="round"/>
<path d="M72.2192 290.734L82.0292 317.244" stroke="#1062FB" stroke-width="42" stroke-miterlimit="10" stroke-linecap="round"/>
<path d="M80.8994 261.254C80.8994 261.254 96.6194 249.634 108.299 250.844L104.349 284.304C104.349 284.304 100.899 264.114 80.8994 261.254Z" fill="#103EFF"/>
<path d="M97.989 299.834L95.019 293.134L101.249 297.944L97.989 299.834Z" fill="#103EFF"/>
<path d="M104.549 344.774L99.0992 437.494C98.4692 447.734 106.609 456.384 116.859 456.384H138.099C146.839 456.384 154.289 450.034 155.669 441.404L170.549 360.504C171.899 352.064 167.069 343.854 159.029 340.954L128.359 329.134C117.189 325.094 105.269 332.924 104.539 344.784L104.549 344.774Z" fill="#1062FB"/>
<path d="M85.1992 456.384H148.219C151.139 456.384 153.629 454.284 154.129 451.414L158.679 425.224H99.7892C89.3692 426.944 82.5192 433.283 80.2592 444.493L79.3092 449.204C78.5592 452.914 81.3992 456.384 85.1892 456.384H85.1992Z" fill="#D8E1FD"/>
<path d="M79.8892 446.313L79.3092 449.193C78.5592 452.903 81.3992 456.373 85.1892 456.373H148.259C151.179 456.373 153.669 454.273 154.169 451.403L155.049 446.313H79.8792H79.8892Z" fill="#BCCBFD"/>
<path d="M99.6992 427.623L158.049 428.513L161.159 411.563H100.689L99.6992 427.623Z" fill="#D8E1FD"/>
<path d="M99.6992 425.313C99.6992 425.313 103.369 424.363 106.869 424.563C112.169 424.853 113.989 425.213 126.509 432.003C126.609 432.053 127.009 431.443 126.899 431.283C125.779 429.553 118.839 419.423 106.659 419.593C103.779 419.633 100.139 420.443 100.139 420.443L99.6992 425.313Z" fill="#BCCBFD"/>
<path d="M100.689 411.563H161.159L163.319 399.803H101.409L100.689 411.563Z" fill="#103EFF"/>
<path d="M163.869 396.803L169.179 367.874L155.099 361.604L163.869 396.803Z" fill="#103EFF"/>
<path d="M240.519 344.774L245.969 437.494C246.599 447.734 238.459 456.384 228.209 456.384H206.969C198.229 456.384 190.779 450.034 189.399 441.404L174.519 360.504C173.169 352.064 177.999 343.854 186.039 340.954L216.709 329.134C227.879 325.094 239.799 332.924 240.529 344.784L240.519 344.774Z" fill="#1062FB"/>
<path d="M259.869 456.384H196.849C193.929 456.384 191.439 454.284 190.939 451.414L186.389 425.224H245.279C255.699 426.944 262.549 433.283 264.809 444.493L265.759 449.204C266.509 452.914 263.669 456.384 259.879 456.384H259.869Z" fill="#D8E1FD"/>
<path d="M265.169 446.313L265.749 449.193C266.499 452.903 263.659 456.373 259.869 456.373H196.799C193.879 456.373 191.389 454.273 190.889 451.403L190.009 446.313H265.179H265.169Z" fill="#BCCBFD"/>
<path d="M245.359 427.623L187.019 428.513L183.909 411.563H244.379L245.359 427.623Z" fill="#D8E1FD"/>
<path d="M245.359 425.313C245.359 425.313 241.689 424.363 238.189 424.563C232.889 424.853 231.069 425.213 218.549 432.003C218.449 432.053 218.049 431.443 218.159 431.283C219.279 429.553 226.219 419.423 238.399 419.593C241.279 419.633 244.919 420.443 244.919 420.443L245.359 425.313Z" fill="#BCCBFD"/>
<path d="M244.379 411.563H183.909L181.749 399.803H243.659L244.379 411.563Z" fill="#103EFF"/>
<path d="M181.199 396.803L175.879 367.874L189.969 361.604L181.199 396.803Z" fill="#103EFF"/>
<path d="M213.26 371.563L138.59 379.713C121.07 381.623 105.6 368.363 104.89 350.833L105.76 251.733C105.12 235.803 117.37 225.713 133.28 223.973L184.86 218.343C200.78 216.603 214.92 223.823 217.72 239.513L239.94 336.093C243.03 353.363 230.78 369.653 213.26 371.563Z" fill="#1062FB"/>
<path d="M135.069 373.033C147.009 381.433 161.249 382.763 176.429 381.103C191.609 379.443 205.229 375.083 215.079 364.303C215.079 364.303 194.069 369.543 175.389 371.583C156.769 373.613 135.069 373.033 135.069 373.033Z" fill="#103EFF"/>
<path d="M175.845 255.88L151.619 258.525L159.874 334.145L184.1 331.501L175.845 255.88Z" fill="#0128FC"/>
<path d="M105.73 254.314L105.66 262.493C119.96 269.094 140.68 271.094 164.36 268.504C188.13 265.914 207.55 259.084 220 249.444L218.34 242.224C207.24 252.254 187.61 259.394 163.65 262.004C139.69 264.614 118.84 261.664 105.73 254.314Z" fill="#103EFF"/>
<path d="M163.649 262.004C197.279 258.334 223.439 245.164 222.069 232.574C220.699 219.994 192.319 212.763 158.679 216.433C125.049 220.103 98.8895 233.274 100.259 245.864C101.629 258.454 130.009 265.674 163.649 262.004Z" fill="#BCCBFD"/>
<path d="M242.339 319.454C241.719 316.764 238.979 315.134 236.319 315.854C214.509 321.804 199.009 323.753 172.119 326.683C144.529 329.693 129.079 331.314 106.069 330.074C103.299 329.924 100.969 332.104 100.939 334.884C100.899 338.494 100.889 342.244 100.909 346.134C100.919 348.714 102.929 350.833 105.499 350.993C129.189 352.453 145.669 350.903 174.419 347.773C202.429 344.713 218.899 342.494 241.339 336.194C243.829 335.494 245.339 332.984 244.799 330.454C243.979 326.644 243.159 322.983 242.339 319.463V319.454Z" fill="#BCCBFD"/>
<path d="M200.639 325.323C200.179 322.353 197.409 320.303 194.439 320.753C187.059 321.883 179.509 322.873 171.799 323.713C163.439 324.623 155.219 325.323 147.169 325.823C144.159 326.013 141.889 328.613 142.079 331.623L143.129 347.843C143.329 350.853 145.919 353.123 148.929 352.943C157.349 352.443 165.979 351.713 174.739 350.753C182.849 349.873 190.789 348.813 198.529 347.613C201.509 347.153 203.569 344.363 203.109 341.383L200.639 325.313V325.323Z" fill="#D8E1FD"/>
<path d="M153.329 343.904C155.969 343.904 158.109 341.763 158.109 339.124C158.109 336.484 155.969 334.344 153.329 334.344C150.689 334.344 148.549 336.484 148.549 339.124C148.549 341.763 150.689 343.904 153.329 343.904Z" fill="#11AD00"/>
<path d="M166.17 343.503C168.81 343.503 170.95 341.363 170.95 338.723C170.95 336.084 168.81 333.943 166.17 333.943C163.53 333.943 161.39 336.084 161.39 338.723C161.39 341.363 163.53 343.503 166.17 343.503Z" fill="#11AD00"/>
<path d="M178.909 342.113C181.549 342.113 183.689 339.973 183.689 337.333C183.689 334.694 181.549 332.553 178.909 332.553C176.269 332.553 174.129 334.694 174.129 337.333C174.129 339.973 176.269 342.113 178.909 342.113Z" fill="#E8A600"/>
<path d="M191.53 339.734C194.169 339.734 196.31 337.594 196.31 334.954C196.31 332.314 194.169 330.174 191.53 330.174C188.89 330.174 186.75 332.314 186.75 334.954C186.75 337.594 188.89 339.734 191.53 339.734Z" fill="#FF3B00"/>
<path d="M115.022 337.656L111.609 331.044C108.777 325.558 102.034 323.405 96.5467 326.237L81.4935 334.007C76.0067 336.839 73.8546 343.582 76.6865 349.069L80.0989 355.681C82.9308 361.167 89.6745 363.32 95.1613 360.488L110.214 352.718C115.701 349.886 117.853 343.142 115.022 337.656Z" fill="#FFAB4B"/>
<path d="M74.048 355.13L74.0469 355.14C73.7532 357.83 75.696 360.249 78.3862 360.542L86.7465 361.455C89.4367 361.749 91.8557 359.806 92.1494 357.116L92.1504 357.106C92.4441 354.416 90.5013 351.997 87.8111 351.703L79.4508 350.79C76.7606 350.497 74.3416 352.439 74.048 355.13Z" fill="#FFAB4B"/>
<path d="M98.2222 309.911L67.3861 323.679C63.5585 325.388 61.841 329.876 63.55 333.704L66.3916 340.069C68.1006 343.896 72.5889 345.614 76.4165 343.905L107.253 330.137C111.08 328.428 112.798 323.94 111.089 320.112L108.247 313.748C106.538 309.92 102.05 308.202 98.2222 309.911Z" fill="#103EFF"/>
<path d="M7.14952 51.5035C23.9995 33.7135 73.5895 88.8335 107.43 92.1535L121.47 152.704L63.0895 166.244C54.5695 168.224 37.7195 164.694 28.5595 148.854C17.1195 129.024 -13.9005 73.7735 7.14952 51.5035Z" fill="#FFAB4B"/>
<path fill-rule="evenodd" clip-rule="evenodd" d="M13.8593 121.033C15.3193 114.143 19.8693 96.2835 30.3393 83.8535C37.9893 74.7435 46.9893 68.7735 53.1793 65.3035C33.5493 52.6635 15.9293 42.2335 7.14931 51.5035C-7.12069 66.6135 2.53931 96.9535 13.8493 121.033H13.8593Z" fill="#1062FB"/>
<path d="M9.06961 63.5435C19.7996 50.5635 62.3996 102.984 85.2196 106.534L96.0896 153.394L63.5096 160.944C52.3896 162.604 40.1496 156.944 34.0596 147.034C24.9796 132.144 -4.36039 79.7535 9.06961 63.5335V63.5435Z" fill="#FFCE96"/>
<path d="M226.179 0.713534C203.219 -7.84647 182.949 63.4735 154.029 81.3435L168.069 141.894L226.449 128.354C234.969 126.374 248.549 115.804 249.799 97.5435C251.349 74.7035 254.889 11.4335 226.179 0.713534Z" fill="#FFAB4B"/>
<path fill-rule="evenodd" clip-rule="evenodd" d="M250.759 66.1035C246.409 60.5535 234.469 46.5235 219.599 39.9735C208.719 35.1635 198.009 33.7635 190.919 33.3635C202.989 13.3735 214.219 -3.74651 226.179 0.713493C245.639 8.00349 250.319 39.4935 250.759 66.1035Z" fill="#1062FB"/>
<path d="M229.749 12.3634C214.399 5.43344 199.219 71.2534 180.289 84.4834L191.159 131.343L223.739 123.793C234.459 120.383 242.959 109.913 244.059 98.3434C245.669 80.9734 248.949 21.0234 229.759 12.3634H229.749Z" fill="#FFCE96"/>
<path d="M163.029 227.454C208.379 216.934 237.119 173.814 227.219 131.134C217.319 88.4535 172.539 62.3835 127.189 72.9035C81.8393 83.4235 53.0993 126.544 62.9993 169.224C72.8993 211.904 117.679 237.974 163.029 227.454Z" fill="#FFAB4B"/>
<path d="M254.16 174.153C252.87 172.443 251.41 170.753 249.83 169.093C250.64 168.373 251.26 167.413 251.59 166.293C252.21 164.233 251.71 161.983 250.27 160.403C241.31 150.803 231.49 146.073 226.41 144.103C224.02 143.203 221.4 143.723 219.51 145.533C219.05 146.003 218.67 146.523 218.38 147.063C215.78 146.703 213 146.513 209.92 146.493C193.64 146.413 172.46 151.323 150.04 156.523L143.13 158.123C120.73 163.313 99.5796 168.223 84.9296 175.483C82.2696 176.823 79.7996 178.273 77.5496 179.803C76.9896 179.393 76.3696 179.063 75.7196 178.843C73.3196 178.043 70.7296 178.713 68.9296 180.623C65.2696 184.563 58.5396 193.073 54.6796 205.773C54.0996 207.783 54.6096 209.953 56.0896 211.613C56.8796 212.463 57.8496 213.053 58.8896 213.343C58.3196 215.133 57.7196 217.333 57.2496 219.813C56.7396 222.463 57.9496 225.083 60.3396 226.503C62.0296 227.503 64.0996 227.743 65.9396 227.233C66.1596 227.913 66.5196 228.553 66.9996 229.113L67.0696 229.193C68.4196 230.633 70.3796 231.273 72.3996 230.883C72.5996 230.833 72.8196 230.793 73.0796 230.763C79.5496 238.183 89.0696 243.953 100.7 247.483C119.29 253.133 143.02 253.113 167.52 247.433C191.94 241.773 213.25 231.343 227.54 218.073C236.6 209.643 242.47 200.503 245.02 190.903C245.14 190.863 245.26 190.833 245.37 190.793L245.52 190.743C247.46 190.213 248.97 188.723 249.48 186.853C249.7 186.103 249.75 185.343 249.65 184.613C251.51 184.223 253.23 183.133 254.33 181.533C255.85 179.213 255.79 176.313 254.16 174.153Z" fill="#FFAB4B"/>
<path d="M200.75 163.113C193.07 166.643 183.96 165.063 177.84 158.953C169.32 150.493 156.97 146.413 144.66 149.263C132.36 152.113 123.06 161.213 119.13 172.563C116.35 180.683 108.82 186.123 100.39 186.383C80.9395 186.913 68.8695 189.083 73.0795 207.233C80.4095 238.843 130.21 252.153 166.52 243.733C202.83 235.313 241.69 201.443 234.36 169.833C230.24 151.653 218.45 155.023 200.75 163.103V163.113Z" fill="white"/>
<path d="M162.569 147.543C160.009 136.483 166.869 125.473 177.929 122.903C188.989 120.343 199.999 127.203 202.569 138.263L204.599 147.023C204.919 148.403 204.219 149.783 202.949 150.373L170.999 164.823C168.929 165.743 166.579 164.583 166.059 162.373L162.619 147.533H162.569V147.543Z" fill="white"/>
<path d="M127.78 155.614C125.22 144.554 114.2 137.684 103.14 140.254C92.0795 142.814 85.2095 153.834 87.7795 164.894L89.8095 173.654C90.1295 175.034 91.3695 175.964 92.7695 175.934L127.82 174.844C130.08 174.754 131.69 172.684 131.18 170.474L127.74 155.634H127.79L127.78 155.614Z" fill="white"/>
<path d="M182.58 155.133C189.78 153.463 194.32 146.493 192.71 139.573C191.1 132.653 183.97 128.393 176.76 130.063C169.56 131.733 165.02 138.703 166.63 145.623C168.24 152.543 175.37 156.803 182.58 155.133Z" fill="black"/>
<path d="M184.78 135.064C186.33 134.704 187.25 132.944 186.83 131.144C186.41 129.344 184.81 128.164 183.26 128.524C181.71 128.884 180.79 130.644 181.21 132.444C181.63 134.244 183.23 135.424 184.78 135.064Z" fill="white"/>
<path d="M113.14 171.243C120.34 169.573 124.88 162.603 123.27 155.683C121.66 148.763 114.53 144.503 107.32 146.173C100.12 147.843 95.5796 154.813 97.1896 161.733C98.7996 168.653 105.93 172.913 113.14 171.243Z" fill="black"/>
<path d="M116.3 150.934C117.85 150.574 118.77 148.814 118.35 147.014C117.93 145.214 116.33 144.034 114.78 144.394C113.23 144.754 112.31 146.514 112.73 148.314C113.15 150.114 114.75 151.294 116.3 150.934Z" fill="white"/>
<path d="M152.41 182.914C161.88 180.714 168.29 173.514 166.74 166.824C165.19 160.134 156.26 156.484 146.79 158.684C137.32 160.884 130.91 168.084 132.46 174.774C134.01 181.464 142.94 185.114 152.41 182.914Z" fill="black"/>
<path d="M149.15 167.994C154.16 166.834 157.83 164.153 157.33 162.013C156.83 159.873 152.37 159.084 147.35 160.244C142.34 161.404 138.67 164.084 139.17 166.224C139.67 168.364 144.13 169.154 149.15 167.994Z" fill="#3C3835"/>
<path d="M153.929 70.8435L152.629 81.8735L141.229 86.3135L137.709 116.554L121.239 90.9435L109.049 91.9735L102.899 82.4535C99.6795 84.3035 96.5995 86.3435 93.6895 88.5435L99.7394 97.9135C101.939 101.334 105.829 103.254 109.879 102.894L115.499 102.414L134.559 133.104C138.119 138.834 146.969 136.784 147.649 130.074L151.259 94.1335L156.519 92.0935C160.309 90.6335 162.959 87.2035 163.429 83.1635L164.709 72.3135C161.189 71.6035 157.589 71.1235 153.939 70.8535L153.929 70.8435Z" fill="#FFCE96"/>
<path d="M111.699 86.5036L123.889 85.4736L134.219 101.534L136.429 82.5736L147.829 78.1336L148.529 72.3436L137.079 76.7936L137.759 71.1436C135.999 71.3336 134.229 71.5736 132.459 71.8836L130.759 86.6136L122.719 74.0836C120.989 74.5836 119.289 75.1336 117.619 75.7236L120.769 80.5736L108.529 81.6136L111.699 86.5136V86.5036Z" fill="#FFCE96"/>
<path d="M190.769 111.483C182.689 109.523 174.059 110.213 170.759 110.833" stroke="#DB811A" stroke-width="9.46" stroke-linecap="round"/>
<path d="M103.82 126.313C100.58 127.213 92.5296 130.383 86.1396 135.703" stroke="#DB811A" stroke-width="9.46" stroke-linecap="round"/>
<path d="M177.069 182.644C179.209 198.114 168.109 206.614 158.739 208.794C149.609 210.914 137.369 208.154 131.319 193.804C139.819 198.954 146.889 199.174 156.019 197.054C165.399 194.884 171.279 190.744 177.069 182.644Z" fill="#440E02" stroke="black" stroke-width="3" stroke-linecap="round" stroke-linejoin="round"/>
<mask id="mask0_1906_1575" style="mask-type:luminance" maskUnits="userSpaceOnUse" x="133" y="184" width="42" height="25">
<path d="M174.679 184.053C176.589 197.903 166.66 205.513 158.27 207.453C150.1 209.353 139.149 206.883 133.729 194.043C141.329 198.653 147.659 198.853 155.839 196.953C164.019 195.053 169.499 191.303 174.679 184.053Z" fill="white"/>
</mask>
<g mask="url(#mask0_1906_1575)">
<path d="M171.119 201.213C171.839 204.183 167.309 207.823 161.009 209.343C154.709 210.863 149.019 209.693 148.299 206.723C147.779 204.563 150.029 202.023 153.739 200.243C156.509 198.923 158.619 199.443 158.619 199.443C158.619 199.443 160.509 198.053 163.269 197.933C167.409 197.753 170.589 199.043 171.119 201.213Z" fill="#FF5252"/>
<path d="M157.679 200.323C157.679 200.323 151.189 201.143 149.689 205.943C149.689 205.943 149.709 206.783 150.809 206.513C151.909 206.243 151.639 203.933 155.609 202.173C155.609 202.173 157.899 201.993 157.689 200.313L157.679 200.323Z" fill="#FF9999"/>
<path d="M159.83 199.813C159.83 199.813 165.97 197.583 169.51 201.173C169.51 201.173 169.88 201.923 168.77 202.193C167.66 202.463 166.86 200.273 162.52 200.523C162.52 200.523 160.4 201.413 159.83 199.813Z" fill="#FF9999"/>
</g>
</svg>
